<svg width="592" height="394" viewBox="0 0 592 394" fill="none" xmlns="http://www.w3.org/2000/svg">
<path d="M391.564 357.807C464.216 357.807 523.112 298.911 523.112 226.259C523.112 153.606 464.216 94.71 391.564 94.71C318.911 94.71 260.015 153.606 260.015 226.259C260.015 298.911 318.911 357.807 391.564 357.807Z" fill="#FEF6E7"/>
<path d="M40.1321 350.798L3.87359 376.993C-0.310491 380.016 -1.25185 385.859 1.771 390.043C3.52821 392.475 6.34635 393.916 9.34696 393.916H529.713C534.875 393.916 539.06 389.731 539.06 384.569C539.06 381.699 537.74 378.987 535.482 377.215L501.802 350.798H40.1321Z" fill="#E9F4F7"/>
<path d="M322.635 349.839C323.151 349.839 323.569 350.257 323.569 350.773C323.569 351.266 323.188 351.67 322.704 351.706L322.635 351.708L7.198 351.733C6.68182 351.733 6.26331 351.314 6.26331 350.798C6.26331 350.305 6.64451 349.902 7.12811 349.866L7.19786 349.863L322.635 349.839Z" fill="#2E363A"/>
<path fill-rule="evenodd" clip-rule="evenodd" d="M175.036 139.723L244.593 146.197C274.453 166.079 291.478 179.815 295.67 187.403C301.957 198.785 298.172 253.256 295.67 278.347L296.053 278.649C300.326 282.057 301.954 285.006 300.94 287.497L300.893 287.606C299.182 291.485 306.587 289.508 307.721 291.785C308.842 294.037 309.648 300.968 314.217 301.122L314.373 301.125C317.511 301.125 365.933 308.809 459.639 324.178V350.307L291.714 350.617C283.957 350.631 276.467 347.805 270.656 342.678L270.412 342.46V350.307L93.3502 350.309L91.8078 350.794C83.1022 353.51 76.7912 355.158 74.2706 355.158C60.4275 355.158 51.7088 335.666 54.9899 325.172C58.2709 314.678 89.5758 182.22 101.339 174.92C109.103 170.103 133.257 158.556 173.802 140.279L175.036 139.723Z" fill="#448BAB"/>
<path fill-rule="evenodd" clip-rule="evenodd" d="M177.77 142.332C178.171 142.995 177.958 143.857 177.296 144.257L170.993 148.075L167.531 150.182L162.899 153.018L157.041 156.649L156.94 156.708C156.882 156.741 156.839 156.761 156.791 156.78L156.61 156.843L156.569 156.853L156.524 156.862C156.458 156.871 156.359 156.877 156.153 156.889L156.02 156.875C155.944 156.866 155.887 156.854 155.824 156.831L155.771 156.809L155.313 156.999L154.688 157.27C152.656 158.17 149.199 159.853 144.054 162.469L141.291 163.881C130.738 169.289 124.894 172.421 118.577 176.177C116.358 177.496 114.551 178.943 113.188 180.566C106.661 188.335 101.909 199.037 97.5645 214.013L97.1737 215.374L96.7992 216.705L96.4229 218.069C95.8237 220.26 95.2037 222.623 94.4973 225.385L92.445 233.473L91.8871 235.639C91.762 236.12 91.641 236.582 91.5206 237.038L91.2889 237.911L91.0378 238.845L90.7924 239.745C90.6305 240.334 90.4719 240.902 90.3151 241.454L89.1418 245.555L88.1726 248.959L87.282 252.106C80.3094 276.824 76.958 290.692 74.3406 306.802C71.5735 323.833 70.6179 339.626 71.6835 354.926C70.6962 354.749 69.7403 354.472 68.8186 354.107C67.8623 339.128 68.8044 323.686 71.4499 307.117L71.573 306.352C74.4356 288.734 78.1583 273.818 86.4431 244.794L87.5027 241.091C87.883 239.765 88.2738 238.342 88.6942 236.758L89.3309 234.326L91.6638 225.149C92.884 220.366 93.8458 216.767 94.8717 213.232L95.1654 212.228C99.5322 197.43 104.357 186.719 111.041 178.763C112.627 176.875 114.674 175.236 117.144 173.767L118.321 173.071L119.867 172.17C125.146 169.116 130.597 166.216 139.224 161.79L142.774 159.975L145.452 158.62L147.392 157.651C150.904 155.907 153.249 154.809 154.609 154.255L154.894 154.14L155.151 154.04L155.401 153.948C155.795 153.809 156.082 153.742 156.345 153.744L156.401 153.746L158.912 152.183L162.956 149.693L168.954 146.033C171.011 144.783 173.298 143.397 175.845 141.858C176.508 141.457 177.37 141.67 177.77 142.332ZM184.444 147.768C184.866 148.417 184.683 149.286 184.034 149.708L183.179 150.262L181.319 151.458L179.043 152.911C168.661 159.515 152.061 169.832 147.879 172.558L147.499 172.808C144.346 174.896 141.534 176.861 138.817 178.887C131.306 184.488 124.062 190.913 114.925 200.17C112.05 203.082 108.847 210.003 105.585 219.703C103.395 226.215 101.554 232.726 99.6799 240.031L99.4715 240.846C95.8131 255.206 89.5253 290.153 87.978 304.267L87.635 307.506L92.2122 306.18L97.7119 304.607L100.49 303.819L118.295 298.788L124.767 296.946C137.066 293.43 144.822 291.106 153.666 288.281L154.883 287.89L155.878 287.564L156.607 287.319C163.134 285.108 168.963 282.562 179.433 277.585L183.764 275.521L186.138 274.399L187.854 273.595C196.938 269.359 202.658 267.035 209.429 264.95C210.169 264.722 210.954 265.137 211.181 265.877C211.409 266.617 210.994 267.402 210.254 267.629L209.484 267.869L208.694 268.121L207.899 268.379C201.304 270.551 195.204 273.19 184.946 278.064L179.878 280.478C168.88 285.694 163.002 288.206 155.749 290.557L153.786 291.186L151.425 291.934C141.034 295.208 131.265 298.045 112.481 303.346L96.8422 307.77L93.236 308.803L89.8187 309.791C89.2481 309.956 88.6729 310.124 88.0867 310.295C87.8346 310.368 87.5784 310.368 87.3416 310.306L86.7596 315.943L86.2282 321.2C86.0812 322.673 85.9412 324.092 85.808 325.459L91.8328 323.336L101.879 319.767L105.439 318.517L107.65 317.751C110.05 316.925 112.143 316.224 114.422 315.481L116.024 314.963L117.416 314.523L118.625 314.148C120.992 313.421 123.574 312.668 127.128 311.657L134.387 309.604C144.908 306.609 150.212 304.921 156.408 302.473L158.033 301.825L159.234 301.342C168.798 297.476 177.309 293.614 193.068 286.138L205.817 280.079C210.885 277.68 214.27 276.104 218.212 274.307C218.917 273.986 219.748 274.297 220.069 275.001C220.39 275.706 220.08 276.537 219.375 276.858L215.548 278.615L212.559 280.004L209.563 281.411C207.926 282.182 206.121 283.037 204.043 284.023L194.328 288.643C177.072 296.83 168.459 300.707 157.684 304.983L156.4 305.487L155.656 305.773L154.67 306.146C149.496 308.081 144.336 309.684 135.532 312.193L127.604 314.437L124.369 315.365L123.196 315.707C120.415 316.521 118.239 317.19 115.89 317.952L113.546 318.72L111.339 319.456L110.215 319.837C107.333 320.817 104.142 321.936 99.6355 323.536L88.6892 327.421L86.7388 328.103C86.3333 328.245 85.9069 328.189 85.564 327.986L85.1735 332.131L84.9249 334.858C84.4414 340.248 84.1138 344.443 83.9295 347.533L83.8669 348.646L83.8261 349.473L83.7978 350.135L83.8129 350.138C83.864 350.152 83.9187 350.171 83.9849 350.196L84.226 350.295L84.5305 350.583L84.6426 350.696C84.7995 350.86 84.8173 350.926 84.8672 351.109L84.9153 351.356C84.9269 351.423 84.9288 351.451 84.9283 351.493L84.9275 351.527C84.9276 351.58 84.9254 351.628 84.9212 351.68L84.9136 351.761C84.9044 351.847 84.8895 351.961 84.8675 352.113L84.7383 352.911L83.8679 353.156C82.8693 353.434 81.9301 353.685 81.0547 353.909C81.0375 353.813 81.0232 353.71 81.011 353.599L80.9957 353.442L80.9822 353.265L80.9707 353.065C80.9178 351.989 80.9643 350.209 81.118 347.579L81.2056 346.168C81.6959 338.66 82.8992 325.676 84.9515 306.217L85.1443 304.393C86.6239 290.432 93.0259 254.789 96.7544 240.154L97.1743 238.517C98.9916 231.48 100.793 225.156 102.927 218.809L103.291 217.737L103.664 216.662L103.918 215.939C106.974 207.338 109.967 201.201 112.929 198.2L113.803 197.318L114.68 196.438L115.561 195.56C123.587 187.593 130.248 181.779 137.141 176.639C139.73 174.709 142.4 172.835 145.356 170.865L145.951 170.47C150.04 167.762 173.461 153.242 182.504 147.358C183.153 146.936 184.022 147.119 184.444 147.768ZM117.753 344.719C118.522 344.813 119.069 345.512 118.975 346.28L118.485 350.308H115.66L116.192 345.941C116.286 345.173 116.985 344.626 117.753 344.719ZM129.998 339.79L130.081 339.794C130.852 339.856 131.428 340.532 131.366 341.304L130.642 350.308H127.829L128.571 341.08C128.631 340.335 129.261 339.774 129.998 339.79ZM139.367 338.603L139.45 338.607C140.222 338.669 140.797 339.345 140.735 340.117L139.915 350.308H137.102L137.94 339.892C138 339.148 138.63 338.586 139.367 338.603ZM152.734 332.185L152.816 332.19C153.588 332.253 154.162 332.93 154.099 333.701L152.776 349.869C152.763 350.025 152.725 350.172 152.667 350.308H150.09C150.002 350.105 149.962 349.877 149.981 349.64L151.304 333.473C151.365 332.729 151.997 332.168 152.734 332.185ZM181.147 323.506L181.229 323.507C182.003 323.542 182.602 324.197 182.567 324.97L181.426 350.308H178.62L179.766 324.844C179.799 324.099 180.41 323.515 181.147 323.506ZM223.758 310.277C224.532 310.303 225.139 310.95 225.114 311.724L223.907 349.04C223.888 349.625 223.514 350.114 222.998 350.308H222.015C221.467 350.103 221.085 349.566 221.105 348.949L222.312 311.634C222.336 310.887 222.939 310.296 223.676 310.277H223.758ZM168.696 326.763C169.449 326.945 169.911 327.703 169.729 328.456L168.375 333.987L168.287 334.368C168.109 335.154 168.012 335.684 167.945 336.257L167.913 336.562L167.611 341.304L167.482 343.223C167.356 345.049 167.213 347.025 167.065 348.842C167.002 349.614 166.326 350.188 165.554 350.126C164.782 350.063 164.208 349.386 164.27 348.614L164.442 346.412L164.581 344.5C164.879 340.313 165.108 336.416 165.126 336.242L165.16 335.927C165.246 335.203 165.369 334.541 165.595 333.56L165.851 332.499L167.004 327.795C167.186 327.043 167.944 326.581 168.696 326.763ZM212.144 314.435C212.91 314.545 213.441 315.256 213.331 316.023L212.77 319.836L210.642 333.892L210.607 334.153L210.556 334.595L210.522 334.922L210.479 335.39C210.419 336.077 210.371 336.832 210.323 337.835L209.891 348.434C209.858 349.207 209.204 349.807 208.43 349.774C207.657 349.741 207.056 349.087 207.09 348.313L207.483 338.57L207.523 337.687L207.573 336.739L207.603 336.238C207.65 335.515 207.702 334.906 207.769 334.29L207.833 333.746L207.921 333.121L208.2 331.263C208.762 327.556 209.813 320.758 210.555 315.622C210.666 314.855 211.377 314.324 212.144 314.435ZM194.206 319.453L194.288 319.456C195.061 319.508 195.645 320.176 195.593 320.949L193.777 348.118C193.726 348.891 193.057 349.475 192.285 349.424C191.512 349.372 190.928 348.704 190.98 347.931L192.796 320.762C192.846 320.017 193.469 319.447 194.206 319.453ZM227.336 297.824C227.642 298.535 227.314 299.36 226.603 299.666L225.767 300.027L222.143 301.612L213.281 305.564C199.598 311.65 192.321 314.542 183.55 317.079L179.822 318.152C178.249 318.603 176.594 319.075 174.8 319.585L160.968 323.503L154.611 325.318C142.7 328.735 135.3 330.974 126.802 333.744L125.025 334.327L123.228 334.924C110.122 339.304 98.5287 343.79 87.6211 348.807C86.9177 349.13 86.0851 348.822 85.7616 348.119C85.4381 347.415 85.7461 346.583 86.4495 346.259C98.2008 340.855 110.725 336.066 125.036 331.372L127.595 330.539C136.949 327.515 145.384 325.016 160.634 320.684L174.998 316.613L179.758 315.254L181.962 314.619L183.313 314.228L184.096 313.996C192.157 311.586 199.299 308.716 212.205 302.974L221.238 298.946L222.876 298.226L224.225 297.639L225.495 297.09C226.206 296.784 227.031 297.113 227.336 297.824ZM236.301 301.361L236.383 301.364C237.156 301.412 237.744 302.077 237.697 302.849L236.98 314.375L236.895 315.873L236.839 316.989L236.811 317.642C236.79 318.172 236.775 318.67 236.763 319.177L236.748 320.025L236.698 334.838L236.673 339.303C236.661 341.174 236.648 343.039 236.632 344.827C236.625 345.601 235.992 346.223 235.218 346.216C234.444 346.209 233.822 345.576 233.828 344.802L233.895 334.642C233.932 326.928 233.941 320.181 233.946 319.867L233.965 318.927L233.984 318.252L234.018 317.326C234.041 316.769 234.07 316.173 234.107 315.497L234.268 312.792L234.898 302.677C234.944 301.932 235.564 301.359 236.301 301.361ZM318.483 307.678C318.949 308.296 318.825 309.175 318.207 309.641L317.595 310.106L317.187 310.419L316.582 310.89C310.834 315.393 306.024 320.154 297.491 329.372L293.092 334.137L291.589 335.755C287.757 339.864 285.259 342.419 282.306 345.23C281.745 345.764 280.858 345.742 280.324 345.181C279.79 344.621 279.812 343.733 280.373 343.199L281.34 342.272L282.175 341.459L282.674 340.968C285.223 338.447 287.808 335.724 291.763 331.445L295.446 327.454C304.874 317.27 309.837 312.438 316.52 307.402C317.138 306.936 318.017 307.059 318.483 307.678ZM330.849 336.228C331.004 336.987 330.514 337.727 329.755 337.882C327.013 338.441 324.833 339.499 322.162 341.417L321.76 341.71L321.131 342.185L319.557 343.396C318.527 344.193 317.526 344.972 317.29 345.151C316.673 345.618 315.794 345.497 315.326 344.88C314.858 344.263 314.979 343.384 315.596 342.916L319.118 340.195L319.945 339.566L320.24 339.347C323.334 337.087 325.917 335.803 329.195 335.135C329.954 334.98 330.694 335.47 330.849 336.228ZM338.366 310.801C338.679 311.509 338.359 312.337 337.651 312.65C316.54 321.994 303.374 330.855 292.337 344.615C291.853 345.219 290.97 345.316 290.366 344.832C289.762 344.347 289.665 343.465 290.15 342.861C301.514 328.694 315.031 319.595 336.517 310.086C337.225 309.773 338.053 310.093 338.366 310.801ZM333.027 327.317C333.254 328.057 332.838 328.841 332.098 329.068C326.15 330.891 320.945 333.472 314.632 337.5L313.726 338.083L312.944 338.594L312.132 339.129C311.486 339.558 310.804 340.016 310.061 340.518L305.166 343.853C304.525 344.288 303.653 344.123 303.218 343.482C302.782 342.842 302.948 341.97 303.588 341.535L308.19 338.399L309.13 337.764L310.39 336.92L311.401 336.253C311.838 335.966 312.263 335.689 312.683 335.419L313.551 334.865C319.873 330.865 325.193 328.251 331.276 326.387C332.017 326.16 332.801 326.576 333.027 327.317ZM263.116 298.874C263.889 298.899 264.497 299.546 264.473 300.32L263.151 342.317C263.126 343.091 262.479 343.699 261.705 343.674C260.931 343.65 260.324 343.003 260.348 342.229L261.67 300.231C261.694 299.485 262.296 298.893 263.033 298.874H263.116ZM249.176 299.717C249.95 299.736 250.563 300.379 250.545 301.153L249.606 340.968C249.587 341.742 248.945 342.354 248.171 342.337C247.397 342.318 246.784 341.676 246.802 340.901L247.742 301.087C247.76 300.312 248.402 299.7 249.176 299.717ZM220.931 285.919C221.205 286.644 220.84 287.453 220.116 287.727L218.034 288.519C205.48 293.324 194.134 298.153 174.575 306.838L162.85 312.052L159.863 313.375L157.969 314.21L155.24 315.41C126.157 328.162 107.783 335.181 86.588 341.047C85.8418 341.254 85.0694 340.816 84.8628 340.07C84.6563 339.324 85.0938 338.552 85.84 338.345C107.973 332.219 127.047 324.812 158.736 310.808L175.979 303.148L180.95 300.952L183.617 299.779C198.258 293.357 208.032 289.303 219.124 285.105C219.848 284.83 220.657 285.195 220.931 285.919ZM303.376 295.155C304.104 295.421 304.478 296.226 304.212 296.953L302.814 300.874L302.71 301.155C302.296 302.251 301.915 303.102 301.452 303.937C300.494 305.66 299.157 307.327 296.827 309.699L296.649 309.876C295.997 310.505 295.34 310.946 294.111 311.647L293.278 312.119L292.852 312.369C291.972 312.895 291.521 313.247 291.109 313.724L290.95 313.912L290.791 314.107L290.637 314.303C289.975 315.163 289.402 316.139 288.47 317.896L287.905 318.965L287.583 319.564L287.354 319.983C286.723 321.122 286.252 321.867 285.649 322.665L285.233 323.207L284.427 324.25L283.804 325.047C280.932 328.695 279.317 330.406 278.14 330.896L278.067 330.924L276.633 333.852C276.29 334.546 275.45 334.831 274.755 334.488C274.061 334.145 273.776 333.304 274.119 332.61L275.763 329.263L275.869 329.056C275.969 328.875 276.051 328.748 276.176 328.612C276.463 328.303 276.869 328.102 277.321 328.13L277.36 328.133L277.501 328.01L277.647 327.875L277.811 327.718L277.991 327.539L278.229 327.293L278.505 326.997L278.708 326.775C279.779 325.589 281.248 323.792 283.169 321.291L283.483 320.879C284.083 320.073 284.564 319.268 285.349 317.8L286.117 316.35L286.453 315.725L286.69 315.294C287.497 313.841 288.087 312.952 288.889 312.007L288.985 311.895C289.771 310.982 290.521 310.457 292.167 309.525L292.685 309.232L292.982 309.061L293.28 308.886C293.984 308.464 294.39 308.166 294.765 307.796L294.826 307.735C296.994 305.526 298.184 304.044 299.001 302.574C299.361 301.927 299.667 301.253 300.003 300.384L300.142 300.017L301.578 295.991C301.844 295.263 302.649 294.889 303.376 295.155ZM250.523 155.416L251.148 155.984L251.898 156.685L252.492 157.246L253.582 158.28L254.423 159.069L254.788 159.406C255.788 160.324 256.512 160.94 257.329 161.567L257.965 162.048L258.489 162.437L258.828 162.685C260.521 163.923 262.275 165.116 264.996 166.902L269.105 169.587L270.634 170.595L271.54 171.198C276.438 174.475 279.197 176.572 282.233 179.376C287.987 184.688 291.011 193.772 292.169 206.066L292.224 206.667L292.276 207.265L292.325 207.859C292.727 212.897 292.795 217.712 292.702 225.102L292.642 230.062L292.639 231.101L292.643 231.747C292.646 231.95 292.649 232.145 292.653 232.341L292.769 236.771L292.845 239.863L292.894 241.9C293.301 259.474 293.444 274.938 293.299 289.826C293.29 290.83 292.919 291.578 292.146 292.601L291.789 293.063C291.228 293.785 290.714 294.345 289.77 295.285L288.681 296.362L288.387 296.656C287.117 297.941 286.51 298.694 285.988 299.665L285.725 300.162L285.595 300.414L285.46 300.684C284.703 302.208 284.157 303.642 283.166 306.53L282.839 307.489C280.725 313.709 279.141 316.675 275.459 319.881C275.074 320.216 274.523 320.363 273.968 320.146C273.587 319.997 273.368 319.76 273.209 319.478C273.161 319.392 273.125 319.313 273.094 319.229L273.05 319.104L272.998 318.932L272.982 318.898C272.725 318.277 272.946 317.553 273.517 317.185L273.59 317.141C273.835 317.003 274.103 316.947 274.363 316.963L274.482 316.975L274.516 316.943C277.016 314.518 278.314 311.996 279.993 307.146L280.742 304.96L281.102 303.933L281.286 303.417C282.039 301.337 282.578 300.105 283.416 298.529L283.518 298.338C284.288 296.904 285.124 295.932 287.003 294.076L287.766 293.324L288.161 292.928C288.688 292.392 289.045 292.001 289.381 291.587L289.814 291.035L289.968 290.833C290.347 290.32 290.493 290.017 290.496 289.799L290.517 287.309L290.529 285.612L290.541 283.054C290.596 269.086 290.406 254.421 289.991 237.839L289.843 232.013L289.835 231.127L289.84 229.684C289.846 229.067 289.854 228.328 289.867 227.4L289.903 224.646L289.921 222.935L289.932 221.175C289.956 215.333 289.822 211.173 289.406 206.635L289.377 206.329C288.278 194.664 285.448 186.16 280.331 181.436L279.888 181.03L279.401 180.592L279.082 180.31C276.155 177.743 273.122 175.576 267.544 171.916L263.441 169.236L262.115 168.362L261.286 167.809C259.157 166.385 257.648 165.32 256 164.079L255.621 163.791L255.24 163.494L254.99 163.295L254.617 162.99C253.827 162.334 253.005 161.589 251.841 160.493L249.742 158.506L249.31 158.104L248.87 157.701C248.797 157.635 248.724 157.569 248.649 157.501C248.073 156.984 248.025 156.097 248.543 155.521C249.06 154.945 249.947 154.898 250.523 155.416ZM182.204 269.178C182.499 269.894 182.158 270.713 181.443 271.009L179.812 271.683L176.273 273.152L174.036 274.084C171.081 275.319 168.225 276.522 165.346 277.742L153.538 282.769C147.047 285.519 143.944 286.711 140.538 287.706L139.792 287.919L139.261 288.066L138.455 288.28C135.999 288.917 133.149 289.508 127.644 290.558L117.073 292.568L113.297 293.294C106.641 294.582 101.214 295.673 93.0319 297.367C92.2737 297.524 91.5319 297.036 91.3749 296.278C91.218 295.52 91.7054 294.778 92.4636 294.621L97.126 293.66L101.433 292.783L104.969 292.072C109.268 291.214 113.386 290.416 118.573 289.427L128.213 287.595L130.171 287.215C134.788 286.311 137.054 285.79 139.46 285.099L140.218 284.876L140.85 284.682L141.486 284.48C144.044 283.65 146.836 282.553 151.553 280.564L163.508 275.476L167.226 273.903L169.463 272.961L172.277 271.781C174.878 270.693 177.549 269.583 180.373 268.417C181.089 268.122 181.908 268.462 182.204 269.178ZM189.072 153.379C189.621 153.924 189.625 154.812 189.079 155.361L188.239 156.21L186.956 157.517L186.301 158.19C185.199 159.323 184.049 160.519 182.815 161.812L180.195 164.571L173.278 171.91C163.047 182.737 156.778 188.953 149.676 194.991L148.425 196.044L143.601 200.026C141.041 202.129 138.62 204.109 138.216 204.445C128.991 212.124 123.543 217.867 118.54 225.978C113.332 234.423 109.846 244.271 107.739 255.67C105.997 265.092 105.23 275.17 105.068 287.549C105.057 288.324 104.422 288.943 103.647 288.933C102.873 288.923 102.254 288.287 102.263 287.513C102.428 274.988 103.207 264.763 104.982 255.161C107.148 243.442 110.748 233.271 116.154 224.507C121.268 216.213 126.823 210.317 136.02 202.626L143.857 196.184L146.276 194.184L147.33 193.304L148.316 192.466L149.004 191.875L149.688 191.281C156.135 185.653 162.254 179.51 171.913 169.272L178.346 162.446L179.433 161.299C182.328 158.249 184.753 155.738 187.089 153.385C187.635 152.836 188.523 152.833 189.072 153.379ZM189.557 166.715C190.066 167.298 190.007 168.184 189.423 168.693L179.763 177.107L178.391 178.31L176.319 180.138L175.537 180.832C173.999 182.201 172.603 183.461 171.263 184.691L170.929 184.998C158.825 196.14 150.529 205.727 142.556 218.502C139.994 222.607 137.96 227.038 136.198 232.151L136.016 232.682C134.74 236.458 133.832 239.741 132.279 245.976L130.929 251.418L130.514 253.063L130.251 254.088C129.941 255.284 129.666 256.302 129.343 257.465C129.01 258.662 128.679 259.805 128.341 260.912L128.05 261.854L127.773 262.733L127.425 263.815C126.487 266.694 125.457 269.571 123.785 274.052L120.802 282.016L120.374 283.18L119.872 284.561C119.816 284.715 119.76 284.871 119.703 285.029C119.441 285.758 118.638 286.136 117.909 285.874C117.181 285.612 116.802 284.809 117.064 284.081L117.578 282.661L118.051 281.372L118.472 280.236L121.261 272.797L122.092 270.554L122.493 269.46C123.654 266.278 124.449 263.957 125.245 261.428L125.493 260.634C125.826 259.561 126.152 258.455 126.478 257.297L126.916 255.718L127.265 254.419C127.692 252.808 128.141 251.025 128.871 248.075L129.725 244.631L130.303 242.342C131.379 238.135 132.167 235.37 133.155 232.395L133.36 231.784C135.229 226.253 137.403 221.462 140.177 217.017C148.187 204.183 156.527 194.498 168.541 183.387L169.03 182.935C171.524 180.639 174.185 178.265 177.564 175.305L187.579 166.581C188.162 166.072 189.048 166.132 189.557 166.715ZM192.588 171.048C193.256 171.439 193.48 172.298 193.089 172.966L188.432 180.935L185.903 185.294C185.057 186.757 184.334 188.015 183.728 189.076L182.84 190.638L182.357 191.497L182.229 191.74L182.133 191.916L182.039 192.083L181.973 192.188L181.904 192.279C181.878 192.311 181.853 192.336 181.726 192.46L181.655 192.513L181.556 192.583L181.401 192.666L181.153 192.752L180.757 192.792L180.733 192.782L180.189 193.534L179.342 194.723L178.608 195.769C178.093 196.507 177.525 197.328 176.904 198.233L175.508 200.277C174.782 201.345 174.017 202.624 173.212 204.104C171.932 206.459 170.583 209.267 169.111 212.587L168.651 213.631L167.997 215.16L163.583 225.676C162.826 227.466 162.217 228.885 161.955 229.436L161.721 229.916L161.549 230.26C160.802 231.743 160.023 233.124 158.731 235.29L156.785 238.53L156.2 239.513C154.726 242.01 153.897 243.558 153.071 245.382L152.635 246.355L152.261 247.201L151.882 248.067C149.464 253.631 147.906 257.932 146.645 262.379L146.557 262.692C146.165 264.092 145.79 265.542 145.389 267.203L145.094 268.446L142.611 279.331C142.435 280.085 141.682 280.554 140.928 280.379C140.174 280.204 139.704 279.451 139.879 278.697L142.434 267.505L142.664 266.542L142.866 265.714C143.201 264.359 143.522 263.131 143.857 261.936L144.039 261.294C145.48 256.274 147.304 251.404 150.258 244.801L150.448 244.377C151.459 242.129 152.431 240.348 154.39 237.072L156.309 233.877L156.724 233.178L157.151 232.452C158.052 230.907 158.659 229.787 159.274 228.538L159.46 228.154L159.61 227.824L159.914 227.131C161.378 223.757 165.058 214.843 166.172 212.301L166.549 211.445L166.922 210.611C168.278 207.589 169.538 204.992 170.749 202.765C171.594 201.209 172.407 199.852 173.189 198.701L174.582 196.66L175.463 195.381C178.087 191.586 179.631 189.502 180.319 188.79C180.457 188.647 180.582 188.534 180.717 188.439C180.767 188.404 180.818 188.371 180.871 188.341L180.939 188.305L183.099 184.542L184.771 181.656C186.093 179.378 187.65 176.707 189.457 173.619L190.669 171.549C191.061 170.881 191.92 170.656 192.588 171.048ZM197.706 175.168C198.422 175.38 198.842 176.112 198.674 176.83L195.755 186.957L194.527 191.16L194.011 192.9C193.967 193.048 193.924 193.19 193.883 193.327L193.695 193.945C191.684 200.518 189.859 205.721 188.03 209.849C184.923 216.864 181.742 222.781 177.221 230.239L176.44 231.519L169.433 242.839C166.658 247.371 164.318 251.361 161.985 255.597L161.473 256.53L161.113 257.199C159.544 260.14 158.242 262.953 155.823 268.448L154.461 271.54L153.911 272.777L153.373 273.972C153.116 274.539 152.87 275.073 152.605 275.642C152.278 276.344 151.444 276.648 150.742 276.321C150.04 275.994 149.736 275.161 150.063 274.459L150.714 273.046L151.331 271.679L152.672 268.648L154.023 265.583L154.814 263.809L155.398 262.516C156.757 259.53 157.766 257.482 158.982 255.241L159.192 254.857C161.426 250.779 163.646 246.96 166.218 242.726L167.502 240.628L173.903 230.293L174.173 229.853C178.988 221.976 182.268 215.935 185.466 208.714C187.16 204.891 188.87 200.062 190.745 193.999L191.171 192.608C191.693 190.879 192.507 188.093 193.317 185.299L195.964 176.115C196.184 175.372 196.964 174.948 197.706 175.168ZM205.688 182.852C206.419 183.107 206.805 183.906 206.55 184.637L203.411 193.617L200.465 201.991L198.852 206.553C197.204 211.205 195.685 215.46 194.273 219.386L191.76 226.333L191.465 227.143L185.674 242.919L185.19 244.268C183.822 248.133 183.037 250.959 178.102 268.606C177.893 269.352 177.12 269.787 176.374 269.579C175.629 269.37 175.193 268.597 175.402 267.851L178.623 256.35C180.904 248.246 181.571 246.068 182.637 243.076L183.76 239.985L188.601 226.811L190.13 222.608L191.963 217.522L193.72 212.615C196.63 204.465 199.971 194.988 203.903 183.714C204.158 182.983 204.957 182.597 205.688 182.852ZM218.753 179.506C219.493 179.733 219.909 180.517 219.681 181.257L217.589 188.106L217.575 188.17L217.594 188.226C217.642 188.376 217.674 188.544 217.693 188.748L217.703 188.875L217.71 189.023L217.712 189.175L217.71 189.338C217.647 192.121 216.049 200.759 211.959 219.228L210.99 223.577L210.466 225.879C209.35 230.718 208.181 235.373 206.271 242.657L202.71 256.154L202.091 258.527L201.529 260.706C201.406 261.186 201.283 261.668 201.157 262.164C200.966 262.914 200.203 263.368 199.452 263.177C198.702 262.986 198.249 262.223 198.439 261.472L199.406 257.712L200.402 253.906L203.114 243.64L204.063 240.02L204.704 237.549C206.233 231.628 207.233 227.515 208.284 222.829L209.207 218.686L210.038 214.908L210.746 211.655C213.741 197.793 214.917 191.118 214.911 189.246L214.907 189.092L214.884 189.05C214.693 188.666 214.686 188.298 214.785 187.814L214.874 187.394C214.955 187.086 215.292 185.997 217.001 180.434C217.229 179.694 218.013 179.278 218.753 179.506ZM230.092 190.482C230.843 190.67 231.3 191.431 231.112 192.182L228.744 201.69L228.074 204.435C227.059 208.64 226.829 209.947 226.565 212.044L226.332 213.978C226.129 215.764 225.315 223.022 224.844 226.934L224.472 229.981L224.063 233.252L223.791 235.39C222.953 241.92 221.933 249.485 220.664 258.497C220.556 259.264 219.847 259.798 219.08 259.69C218.313 259.582 217.779 258.873 217.887 258.106L218.683 252.411L219.457 246.771L220.033 242.49C220.666 237.746 221.213 233.499 221.689 229.639L222.21 225.34L223.03 218.219C223.325 215.622 223.561 213.516 223.592 213.26L223.815 211.442C224.248 208.058 224.658 206.455 228.392 191.503C228.58 190.751 229.341 190.295 230.092 190.482ZM238.991 180.184C239.737 180.212 240.324 180.818 240.339 181.555L240.338 181.62L239.849 193.995L239.501 203.421C239.434 205.387 239.384 206.969 239.367 207.851L239.36 208.306C239.344 210.894 239.721 229.243 239.849 237.424C239.861 238.198 239.243 238.835 238.469 238.848C237.695 238.86 237.057 238.242 237.045 237.468L236.621 213.638C236.585 211.434 236.561 209.694 236.557 208.751L236.556 208.288C236.567 206.689 236.832 199.472 237.084 192.923L237.537 181.532C237.566 180.758 238.217 180.154 238.991 180.184ZM255.158 169.09C257.583 172.395 259.911 175.205 262.548 178.095L263.104 178.699L264.682 180.374L268.224 184.121C268.503 184.419 268.755 184.688 268.966 184.915L269.398 185.387C275.714 192.39 278.755 198.908 281.151 212.505C281.285 213.267 280.776 213.994 280.014 214.129C279.251 214.263 278.524 213.754 278.39 212.991L278.251 212.214L278.114 211.476L277.974 210.739C275.785 199.427 273.035 193.718 267.67 187.66L267.316 187.265C266.272 186.107 261.942 181.577 260.905 180.451C258.026 177.326 255.515 174.317 252.898 170.748C252.44 170.124 252.575 169.246 253.199 168.788C253.823 168.33 254.701 168.465 255.158 169.09ZM249.279 174.192L251.379 210.569C251.424 211.342 250.834 212.005 250.061 212.05C249.288 212.094 248.625 211.504 248.58 210.731L246.48 174.353C246.435 173.58 247.026 172.918 247.799 172.873C248.572 172.828 249.235 173.419 249.279 174.192ZM257.002 182.307L264.963 209.546C265.181 210.289 264.754 211.068 264.011 211.285C263.268 211.502 262.489 211.076 262.272 210.332L254.311 183.093C254.094 182.35 254.52 181.572 255.263 181.354C256.007 181.137 256.785 181.564 257.002 182.307Z" fill="#63A0BC"/>
<path opacity="0.5" fill-rule="evenodd" clip-rule="evenodd" d="M207.676 172.015L229.473 185.537L243.191 169.681L233.688 162.861L228.056 172.015L218.349 162.861L215.299 161.69L207.676 172.015Z" fill="#21396E"/>
<path opacity="0.5" fill-rule="evenodd" clip-rule="evenodd" d="M278.849 278.628C281.511 318.611 292.27 340.294 311.128 343.675H270.747L273.229 295.07L278.849 278.628Z" fill="#21396E"/>
<path opacity="0.5" fill-rule="evenodd" clip-rule="evenodd" d="M244.054 295.069C246.56 307.496 241.026 315.624 227.451 319.453C207.089 325.196 185.444 350.797 156.636 350.797C137.431 350.797 116.59 350.776 94.1129 350.734C109.902 346.024 126.785 340.592 144.762 334.44C162.739 328.287 189.523 318.774 225.115 305.9C227.621 304.236 228.971 302.523 229.164 300.761C229.358 298.999 229.455 298.119 229.455 298.119C233.119 296.968 235.867 296.202 237.699 295.819C239.532 295.436 241.65 295.186 244.054 295.069Z" fill="#21396E"/>
<path opacity="0.5" fill-rule="evenodd" clip-rule="evenodd" d="M158.873 209.516L161.786 273.229L131.37 281.554L158.873 209.516Z" fill="#21396E"/>
<path fill-rule="evenodd" clip-rule="evenodd" d="M241.251 226.024H282.842L277.797 291.777C277.683 293.263 276.698 294.539 275.289 295.025C272.545 295.973 268.13 296.446 262.046 296.446L261.364 296.444C255.631 296.41 251.444 295.937 248.803 295.025C247.395 294.539 246.409 293.263 246.295 291.777L241.251 226.024Z" fill="#E2E0E0"/>
<path fill-rule="evenodd" clip-rule="evenodd" d="M282.841 226.024L277.796 291.777C277.683 293.263 276.697 294.539 275.289 295.025C272.545 295.973 268.13 296.446 262.046 296.446C257.624 296.446 257.057 273.031 260.347 226.202L282.841 226.024Z" fill="white"/>
<path fill-rule="evenodd" clip-rule="evenodd" d="M242.257 219.016H281.511C283.06 219.016 284.315 220.271 284.315 221.82V226.025H239.453V221.82C239.453 220.271 240.708 219.016 242.257 219.016Z" fill="#80424C"/>
<path fill-rule="evenodd" clip-rule="evenodd" d="M246.858 212.006H276.766C278.315 212.006 279.57 213.261 279.57 214.81V219.016H244.054V214.81C244.054 213.261 245.31 212.006 246.858 212.006Z" fill="#80424C"/>
<path fill-rule="evenodd" clip-rule="evenodd" d="M265.551 219.016H281.439C282.988 219.016 284.243 220.271 284.243 221.82V226.025H262.747V221.82C262.747 220.271 264.002 219.016 265.551 219.016Z" fill="#8E545E"/>
<path fill-rule="evenodd" clip-rule="evenodd" d="M270.224 212.006H276.766C278.315 212.006 279.57 213.261 279.57 214.81V219.016H267.42V214.81C267.42 213.261 268.675 212.006 270.224 212.006Z" fill="#8E545E"/>
<path d="M279.57 218.08C280.086 218.08 280.505 218.499 280.505 219.015C280.505 219.507 280.124 219.911 279.64 219.947L279.57 219.949H252.626C252.11 219.949 251.691 219.531 251.691 219.015C251.691 218.522 252.073 218.118 252.556 218.083L252.626 218.08H279.57Z" fill="#5F2932"/>
<path d="M284.155 224.856C284.671 224.856 285.09 225.275 285.09 225.791C285.09 226.284 284.708 226.687 284.225 226.723L284.155 226.726H245.061C244.545 226.726 244.126 226.307 244.126 225.791C244.126 225.298 244.507 224.895 244.991 224.859L245.061 224.856H284.155Z" fill="#5F2932"/>
<path fill-rule="evenodd" clip-rule="evenodd" d="M239.193 128.975C238.564 133.024 238.25 136.606 238.25 139.722L236.755 156.059L228.79 171.725L212.035 165.336L185.124 140.889L180.172 129.984C190.548 111.281 196.727 94.8234 198.708 80.6101L226.223 75.6426L243.282 109.297L239.193 128.975Z" fill="#FDB4A3"/>
<path fill-rule="evenodd" clip-rule="evenodd" d="M200.506 85.6347C200.93 107.675 205.234 120.577 213.418 124.34C225.693 129.985 248.491 137.884 252.761 129.985C257.031 122.085 266.182 103.301 269.688 92.5383C272.025 85.3631 274.986 76.1089 278.57 64.7757C283.393 50.4653 277.766 41.2167 261.689 37.0297C245.612 32.8427 224.619 30.7768 198.708 30.8321L205.08 68.1989C201.943 63.9664 197.794 61.8502 192.634 61.8502C184.895 61.8502 180.647 81.1295 188.585 83.3821C193.878 84.8839 197.851 85.6347 200.506 85.6347Z" fill="#FDB4A3"/>
<path d="M236.835 107.207C237.245 106.893 237.832 106.971 238.146 107.381C242.041 112.47 246.81 114.525 252.574 113.625C253.084 113.545 253.562 113.894 253.641 114.404C253.721 114.914 253.372 115.392 252.862 115.471C246.403 116.48 240.963 114.136 236.661 108.517C236.348 108.108 236.426 107.521 236.835 107.207Z" fill="#583E40"/>
<path fill-rule="evenodd" clip-rule="evenodd" d="M198.373 85.3135C201.62 86.847 202.864 90.2127 202.103 95.4105L202.068 95.6445C200.819 103.641 204.806 115.293 207.264 119.817C208.903 122.833 219.298 126.998 238.448 132.314L227.568 133.881C222.336 134.635 218.706 139.488 219.46 144.72C219.511 145.073 219.582 145.424 219.672 145.77L219.743 146.029C221.744 152.902 228.65 156.061 228.788 171.261L228.79 171.725L212.035 165.337L185.124 140.889L180.172 129.985C189.312 113.51 195.196 98.7764 197.821 85.785L198.373 85.3135Z" fill="#F69883"/>
<path fill-rule="evenodd" clip-rule="evenodd" d="M209.863 167.16L229.577 185.537L241.523 165.069L233.052 158.96L228.031 167.16L219.378 158.96L216.659 157.912L209.863 167.16Z" fill="#D8D8D8"/>
<path fill-rule="evenodd" clip-rule="evenodd" d="M283.231 235.013C285.995 236.12 286.24 237.449 286.24 238.662C286.24 239.875 281.859 242.959 279.145 243.73C276.431 244.501 263.186 257.713 263.186 257.713L263.74 257.394C272.705 252.239 278.106 249.844 279.94 250.209C282.748 250.768 284.601 255.174 282.237 257.255L282.057 257.41C280.933 258.364 278.947 259.771 276.099 261.63L275.972 261.713L276.046 261.672C278.979 260.035 280.887 259.547 281.769 260.208C283.692 261.649 284.914 264.337 284.914 265.6C284.914 266.442 283.672 267.674 281.19 269.293C283.525 271.763 283.108 274.351 279.94 277.055L279.641 277.306C274.536 281.527 258.687 291.618 255.368 293.089C252.414 294.398 240.343 294.455 229.455 298.118C231.097 289.446 228.962 278.18 223.05 264.322L222.664 263.425C222.357 262.721 221.954 262.085 221.475 261.529L221.912 261.385C225.638 260.151 227.678 259.177 228.033 258.464C228.74 257.045 230.831 245.082 232.101 244.501L232.171 244.467C233.12 243.983 236.424 241.478 242.082 236.951L243.407 254.672L250.727 250.29C259.276 245.154 264.57 241.9 266.609 240.528L266.832 240.376C270.311 237.987 280.467 233.907 283.231 235.013ZM275.883 261.771L275.971 261.713L275.878 261.766C274.589 262.495 273.106 263.44 271.43 264.602L272.551 263.9C273.766 263.135 274.877 262.426 275.883 261.771Z" fill="#FDB4A3"/>
<path d="M158.481 207.994C158.662 207.511 159.2 207.265 159.684 207.446C160.144 207.618 160.389 208.115 160.255 208.58L160.232 208.649L133.394 280.407L133.501 280.386C140.151 279.057 165.636 272.05 209.258 259.536L213.484 258.323C217.543 257.157 221.837 259.18 223.521 263.053C230.515 279.136 232.569 291.885 229.619 301.324C228.713 304.223 226.515 306.539 223.667 307.596C134.443 340.705 94.2427 353.577 83.2822 353.577C82.766 353.577 82.3475 353.159 82.3475 352.643C82.3475 352.126 82.766 351.708 83.2822 351.708C93.901 351.708 134.145 338.822 223.016 305.844C225.322 304.988 227.101 303.113 227.835 300.766C230.626 291.839 228.638 279.509 221.807 263.798C220.497 260.786 217.157 259.212 214 260.119L204.895 262.731C158.758 275.943 134.744 282.458 131.978 282.489C131.345 282.496 130.895 281.888 131.07 281.293L131.092 281.227L158.481 207.994Z" fill="#21396E"/>
<path d="M131.755 280.644C132.258 280.526 132.76 280.839 132.878 281.341C132.99 281.821 132.711 282.301 132.248 282.446L132.18 282.464L96.4422 290.815C95.9395 290.932 95.4368 290.62 95.3194 290.117C95.2073 289.637 95.4867 289.158 95.9495 289.013L96.0169 288.994L131.755 280.644Z" fill="#21396E"/>
<path d="M273.281 299.153C273.773 299.18 274.155 299.584 274.163 300.068L274.162 300.138L271.345 350.359C271.316 350.875 270.875 351.269 270.36 351.24C269.868 351.212 269.486 350.809 269.477 350.324L269.479 350.255L272.295 300.034C272.323 299.542 272.726 299.16 273.211 299.151L273.281 299.153Z" fill="#21396E"/>
<path fill-rule="evenodd" clip-rule="evenodd" d="M219.378 158.816C211.26 164.775 207.545 172.591 208.231 182.264C187.885 162.092 176.365 148.546 173.67 141.625C176.022 134.507 178.189 130.627 180.172 129.984L219.378 158.816Z" fill="white"/>
<path fill-rule="evenodd" clip-rule="evenodd" d="M233.052 158.961C238.93 164.884 241.869 171.424 241.869 178.583C245.263 172.528 246.164 161.651 244.572 145.95L238.355 139.445L235.979 145.95L233.052 158.961Z" fill="white"/>
<path d="M258.798 82.1788L258.867 82.182C259.382 82.2249 259.764 82.6767 259.721 83.1911C259.265 88.6584 259.236 92.8265 259.474 97.5963L259.552 99.0374C259.586 99.621 259.641 100.551 259.657 100.848L259.684 101.392C259.703 101.788 259.715 102.126 259.721 102.434L259.724 102.691L259.729 103.207L259.294 103.486C255.006 106.234 250.977 105.778 247.51 102.144C247.154 101.77 247.168 101.179 247.541 100.823C247.915 100.466 248.506 100.48 248.863 100.854C251.535 103.656 254.379 104.129 257.647 102.296L257.844 102.182L257.831 101.786C257.827 101.686 257.822 101.582 257.817 101.473L257.66 98.6975C257.363 93.42 257.363 88.9766 257.858 83.0358C257.899 82.5448 258.313 82.1742 258.798 82.1788Z" fill="#2E363A"/>
<path fill-rule="evenodd" clip-rule="evenodd" d="M236.293 66.0554L237.06 65.6254L237.814 65.2079C245.346 61.0737 249.86 59.5791 251.357 60.7241C253.979 62.729 251.213 67.9174 245.297 68.4616C242.513 68.7178 239.781 68.6342 237.101 68.2108L236.655 68.1371C236.044 68.0318 235.635 67.4516 235.74 66.8412C235.797 66.5095 236 66.2211 236.293 66.0554Z" fill="#2E363A"/>
<path fill-rule="evenodd" clip-rule="evenodd" d="M279.65 73.4726L279.133 72.9275L278.76 72.5379C273.577 67.1539 270.209 64.7273 268.657 65.2579C265.962 66.1788 266.858 71.0607 271.589 73.045C273.815 73.9789 276.089 74.6268 278.41 74.9887L278.797 75.0464C279.329 75.1217 279.821 74.7639 279.897 74.2472C279.938 73.9664 279.847 73.682 279.65 73.4726Z" fill="#2E363A"/>
<path fill-rule="evenodd" clip-rule="evenodd" d="M188.27 114.278C188.077 104.709 184.591 93.0561 177.812 79.3186C167.643 58.7122 169.598 22.6553 197.667 16.4664C204.95 1.45228 217.957 -3.2944 236.689 2.22637L237.803 2.55569C255.83 7.90302 265.754 11.7062 267.577 13.9653L267.898 13.0348C269.266 9.04771 269.951 6.68804 269.951 5.95579C269.951 4.77452 285.058 15.8157 287.311 23.3234L289.585 20.1057C301.075 32.3802 299.718 47.5854 285.512 65.7214L275.249 75.2773L278.536 64.6503L278.382 64.5193C276.989 63.3042 274.748 60.5405 271.661 56.2282C267.072 56.1465 263.333 55.282 260.444 53.6345L259.408 53.489C251.467 52.347 246.294 50.9764 243.891 49.377C236.937 59.9785 229.148 65.2157 220.523 65.0886L216.206 78.3119C214.903 82.3023 210.948 84.7916 206.8 84.2579L206.634 84.235L205.08 68.1988C200.205 63.0043 195.137 61.8214 189.875 64.6503C181.983 68.8936 181.983 85.3133 198.373 85.3133L195.28 98.4831L188.27 114.278Z" fill="#2E363A"/>
<path fill-rule="evenodd" clip-rule="evenodd" d="M246.321 82.1939C247.592 82.418 248.895 81.0543 249.231 79.148C249.567 77.2418 248.809 75.5148 247.539 75.2907C246.268 75.0666 244.965 76.4303 244.629 78.3366C244.293 80.2428 245.051 81.9698 246.321 82.1939Z" fill="#2E363A"/>
<path fill-rule="evenodd" clip-rule="evenodd" d="M267.35 85.9322C268.621 86.1563 269.924 84.7926 270.26 82.8863C270.596 80.9801 269.838 79.2531 268.568 79.029C267.297 78.8049 265.994 80.1686 265.658 82.0748C265.322 83.9811 266.079 85.7081 267.35 85.9322Z" fill="#2E363A"/>
<path fill-rule="evenodd" clip-rule="evenodd" d="M385.538 222.754H560.46C563.041 222.754 565.133 224.846 565.133 227.427C565.133 228.028 565.017 228.624 564.791 229.181L512.831 357.51H323.102L374.709 230.052C376.495 225.641 380.779 222.754 385.538 222.754Z" fill="#B6D4E5"/>
<path fill-rule="evenodd" clip-rule="evenodd" d="M234.312 343.958H342.262V357.51H245.995C239.543 357.51 234.312 352.28 234.312 345.827V343.958Z" fill="#B6D4E5"/>
<path d="M191.966 70.2384C194.256 67.9492 197.967 67.9492 200.257 70.2384C200.622 70.6034 200.622 71.1952 200.257 71.5602C199.892 71.9252 199.3 71.9252 198.935 71.5602C197.376 70.0009 194.848 70.0009 193.288 71.5602C191.729 73.1195 191.729 75.6476 193.288 77.2069C193.653 77.5719 193.653 78.1636 193.288 78.5286C192.923 78.8936 192.331 78.8936 191.966 78.5286C189.677 76.2394 189.677 72.5277 191.966 70.2384Z" fill="#583E40"/>
<path fill-rule="evenodd" clip-rule="evenodd" d="M395.351 222.908H570.273C572.854 222.908 574.946 225 574.946 227.581C574.946 228.182 574.83 228.778 574.605 229.335L526.664 347.739C524.235 353.738 518.409 357.665 511.936 357.665H339.849C337.269 357.665 335.176 355.572 335.176 352.992C335.176 352.39 335.292 351.795 335.518 351.238L384.523 230.206C386.309 225.795 390.592 222.908 395.351 222.908Z" fill="#E9F0F6"/>
<path d="M298.623 207.388C299.139 207.364 299.576 207.763 299.6 208.279L299.647 209.354C300.345 226.313 299.439 248.189 296.929 274.989L296.652 277.888L296.802 277.993C300.375 280.521 302.193 283.035 302.133 285.592L302.127 285.734C301.871 290.773 297.79 298.064 290.084 305.06C289.701 305.407 289.11 305.379 288.763 304.996C288.416 304.614 288.445 304.023 288.827 303.676C296.195 296.987 300.032 290.132 300.261 285.639C300.359 283.708 298.706 281.513 295.148 279.123C294.863 278.931 294.706 278.598 294.739 278.256L294.987 275.673C297.605 247.988 298.52 225.549 297.733 208.364C297.709 207.848 298.108 207.411 298.623 207.388Z" fill="#21396E"/>
<path d="M299.892 289.848C302.603 289.752 304.856 289.944 306.66 290.434C309.65 291.247 310.819 294.381 310.819 300.086C310.819 301.671 309.92 303.273 308.247 305.093C307.466 305.943 306.589 306.772 305.32 307.89L303.633 309.363C300.113 312.458 299.178 313.525 299.328 314.298L299.343 314.363C299.482 314.86 299.191 315.375 298.693 315.513C298.196 315.652 297.681 315.36 297.542 314.863C297.199 313.627 297.842 312.378 299.264 310.855C299.789 310.292 300.424 309.688 301.253 308.951L301.824 308.448L303.525 306.975C305.062 305.641 306.038 304.734 306.871 303.828C308.255 302.323 308.949 301.084 308.949 300.086C308.949 295.146 308.056 292.751 306.169 292.238C304.568 291.803 302.496 291.626 299.958 291.716C299.442 291.735 299.009 291.332 298.991 290.816C298.973 290.3 299.376 289.867 299.892 289.848Z" fill="#21396E"/>
<path d="M310.21 299.911C310.306 299.404 310.796 299.071 311.303 299.168L312.407 299.378C322.103 301.21 330.17 302.505 336.605 303.264C337.117 303.324 337.484 303.789 337.423 304.301C337.363 304.814 336.898 305.18 336.386 305.12C329.659 304.327 321.182 302.955 310.953 301.004C310.446 300.908 310.113 300.418 310.21 299.911Z" fill="#21396E"/>
<path d="M201.968 94.7154C202.481 94.6603 202.942 95.0317 202.997 95.5449L203.099 96.4785C204.793 111.597 207.546 120.363 211.102 122.616C214.967 125.063 221.165 127.249 229.676 129.148C230.18 129.26 230.497 129.76 230.385 130.263C230.272 130.767 229.773 131.084 229.269 130.972C220.566 129.031 214.184 126.78 210.102 124.195C205.785 121.461 202.887 112.035 201.138 95.7444C201.083 95.2312 201.455 94.7705 201.968 94.7154Z" fill="#583E40"/>
<path fill-rule="evenodd" clip-rule="evenodd" d="M451.62 303.286C458.73 303.286 465.537 297.533 466.823 290.435C468.11 283.338 463.39 277.584 456.28 277.584C449.17 277.584 442.363 283.338 441.077 290.435C439.79 297.533 444.51 303.286 451.62 303.286Z" fill="#B6D4E5"/>
<path fill-rule="evenodd" clip-rule="evenodd" d="M247.992 263.091L248.579 263.486C254.565 267.559 256.969 270.977 256.969 278.627C256.969 283.886 259.99 287.353 258.417 291.44L257.574 291.925C256.616 292.469 255.856 292.872 255.368 293.089C252.414 294.398 240.343 294.455 229.455 298.118C231.097 289.445 228.962 278.18 223.05 264.322L222.664 263.425C222.357 262.721 221.954 262.085 221.475 261.528L221.912 261.385L222.54 261.174C225.868 260.039 227.699 259.136 228.033 258.464C228.74 257.045 230.831 245.081 232.101 244.501L232.171 244.467L232.253 244.423C233.3 243.846 236.576 241.356 242.082 236.951L243.407 254.672C242.422 257.531 243.951 260.337 247.992 263.091Z" fill="#F69883"/>
<path d="M258.378 244.56C258.817 244.288 259.393 244.423 259.665 244.862C259.924 245.279 259.814 245.82 259.427 246.106L259.363 246.149L239.946 258.187C239.507 258.459 238.931 258.324 238.659 257.885C238.4 257.469 238.509 256.928 238.897 256.642L238.961 256.598L258.378 244.56Z" fill="#583E40"/>
<path d="M276.19 260.433C276.633 260.168 277.207 260.314 277.471 260.757C277.722 261.178 277.604 261.717 277.211 261.997L277.147 262.038L266.577 268.338C266.133 268.602 265.559 268.457 265.295 268.013C265.044 267.592 265.163 267.053 265.555 266.774L265.62 266.732L276.19 260.433Z" fill="#583E40"/>
<path d="M280.727 268.81C281.18 268.563 281.748 268.732 281.994 269.185C282.228 269.617 282.087 270.153 281.681 270.415L281.618 270.453L272.61 275.341C272.156 275.588 271.589 275.42 271.343 274.966C271.108 274.534 271.25 273.999 271.656 273.736L271.718 273.699L280.727 268.81Z" fill="#583E40"/>
<path d="M275.562 250.533C276.026 250.307 276.586 250.5 276.812 250.964C277.027 251.406 276.862 251.934 276.445 252.179L276.381 252.214L259.28 260.544C258.816 260.77 258.256 260.577 258.03 260.113C257.815 259.671 257.98 259.143 258.397 258.898L258.461 258.864L275.562 250.533Z" fill="#583E40"/>
<path d="M179.876 129.098C180.365 128.935 180.895 129.199 181.058 129.689C181.222 130.179 180.957 130.708 180.467 130.871C177.505 131.86 175.534 134.727 174.588 139.623C174.49 140.129 174 140.461 173.493 140.363C172.986 140.265 172.655 139.775 172.753 139.268C173.815 133.771 176.179 130.331 179.876 129.098Z" fill="#D8D8D8"/>
<path d="M410.724 234.124C405.724 234.124 400.223 237.673 398.439 242.051L398.394 242.163C397.048 245.6 398.41 248.569 401.635 249.596L401.675 249.609L401.657 249.622C397.74 252.447 394.718 256.047 393.164 259.859C393.114 259.981 393.066 260.103 393.02 260.225L392.961 260.383L392.896 260.56L392.84 260.72L392.794 260.854L392.714 261.098L392.635 261.356L392.564 261.597L392.494 261.855L392.447 262.039L392.393 262.263L392.356 262.43L392.322 262.589C391.698 265.615 392.163 268.377 393.612 270.585L393.645 270.633L393.61 270.636C388.822 270.966 383.773 274.377 382.078 278.536C380.294 282.914 382.901 286.463 387.901 286.463C392.901 286.463 398.402 282.914 400.186 278.536L400.24 278.4C400.68 277.267 400.833 276.172 400.704 275.17L400.843 275.202C402.054 275.468 403.355 275.604 404.73 275.604L404.92 275.604C407.709 275.578 410.627 275 413.486 273.932L413.639 273.874L413.617 273.91C413.345 274.358 413.113 274.816 412.925 275.279C411.14 279.657 413.747 283.206 418.748 283.206C423.748 283.206 429.248 279.657 431.033 275.279C432.817 270.901 430.21 267.352 425.21 267.352L425.039 267.353C424.64 267.36 424.235 267.388 423.825 267.439L423.935 267.332C426.264 265.06 428.053 262.508 429.132 259.859L429.223 259.631C429.372 259.252 429.504 258.873 429.621 258.497L429.677 258.308L429.794 258.343C430.531 258.555 431.346 258.665 432.224 258.665C437.224 258.665 442.724 255.116 444.509 250.738C446.294 246.36 443.687 242.811 438.686 242.811L438.56 242.812C434.692 242.858 430.466 245.024 427.968 248.127L427.947 248.153L427.874 248.069L427.784 247.969L427.593 247.764L427.434 247.603L427.258 247.432L427.113 247.298L426.957 247.159L426.796 247.022L426.651 246.903L426.447 246.743L426.3 246.633L426.13 246.51L425.999 246.419L425.911 246.359L425.754 246.256L425.561 246.134L425.358 246.012L425.315 245.987L425.109 245.869L424.966 245.791L424.738 245.671L424.482 245.545L424.329 245.473L424.117 245.377C424.028 245.337 423.943 245.301 423.857 245.265L423.617 245.168L423.37 245.074L423.154 244.996L422.985 244.939L422.72 244.852L422.449 244.77L422.335 244.737L422.105 244.674L421.847 244.608L421.739 244.581L421.45 244.515L421.181 244.459L420.923 244.409L420.67 244.364L420.374 244.317L420.141 244.283L419.894 244.252L419.727 244.232L419.601 244.218L419.355 244.194L419.187 244.179L419.005 244.165L418.715 244.147L418.494 244.135L418.318 244.128L418.179 244.123L417.931 244.117L417.723 244.115L417.581 244.114L417.313 244.116L417.056 244.12C416.542 244.133 416.024 244.164 415.503 244.213L415.311 244.232L415.313 244.229C415.827 243.528 416.243 242.796 416.547 242.051C418.331 237.673 415.724 234.124 410.724 234.124Z" fill="#B6D4E5"/>
<path d="M411.379 234.124C416.085 234.124 418.538 237.422 416.857 241.49C416.475 242.414 415.907 243.314 415.18 244.156C414.897 244.485 415.078 244.826 415.504 244.768C416.464 244.635 417.415 244.562 418.351 244.551L418.625 244.549L418.764 244.55L418.973 244.553L419.223 244.558L419.359 244.563L419.535 244.57L419.755 244.581L420.048 244.6L420.228 244.614L420.395 244.628L420.643 244.652L420.767 244.666L420.933 244.685L421.181 244.716L421.413 244.749L421.71 244.796L421.961 244.84L422.219 244.889L422.487 244.945L422.778 245.011L422.882 245.036L423.142 245.102L423.373 245.164L423.483 245.196L423.756 245.277L424.022 245.363L424.188 245.419L424.404 245.496L424.651 245.589L424.894 245.686C424.977 245.719 425.061 245.755 425.147 245.793L425.363 245.889L425.514 245.959L425.77 246.085L425.999 246.203L426.139 246.279L426.349 246.397L426.592 246.541L426.786 246.662L426.942 246.763L427.029 246.822L427.159 246.911L427.33 247.033L427.476 247.141L427.681 247.3L427.825 247.416L427.986 247.552L428.142 247.688L428.286 247.82L428.463 247.99L428.62 248.147L428.814 248.353L428.831 248.37C429.021 248.579 429.201 248.794 429.37 249.016C429.558 249.263 430.098 249.143 430.336 248.801C432.611 245.531 436.983 243.19 440.932 243.19C445.638 243.19 448.091 246.487 446.411 250.555C444.73 254.623 439.553 257.921 434.847 257.921C433.711 257.921 432.686 257.729 431.812 257.36C431.492 257.225 430.977 257.496 430.892 257.844C430.711 258.579 430.466 259.324 430.156 260.074C428.919 263.067 426.754 265.934 423.914 268.403C423.509 268.755 423.708 269.198 424.22 269.083C425.052 268.895 425.879 268.799 426.682 268.799C431.388 268.799 433.841 272.097 432.161 276.165C430.48 280.233 425.303 283.531 420.597 283.531C415.891 283.531 413.438 280.233 415.118 276.165C415.434 275.4 415.879 274.651 416.436 273.937C416.746 273.539 416.387 273.197 415.884 273.411C412.538 274.835 409.068 275.599 405.782 275.599C403.951 275.599 402.251 275.36 400.723 274.897C400.307 274.77 399.727 275.219 399.846 275.575C400.241 276.755 400.149 278.129 399.556 279.565C397.875 283.633 392.698 286.93 387.992 286.93C383.285 286.93 380.833 283.633 382.513 279.565C384.193 275.497 389.371 272.199 394.077 272.199C394.236 272.199 394.393 272.203 394.548 272.21C395.028 272.234 395.497 271.715 395.258 271.426C393.334 269.101 392.673 266.02 393.427 262.611L393.464 262.445L393.519 262.223L393.565 262.044L393.636 261.788L393.705 261.551L393.785 261.296L393.866 261.054L393.911 260.923L393.967 260.765L394.032 260.59L394.092 260.432C394.137 260.314 394.186 260.194 394.235 260.074C395.89 256.067 399.209 252.3 403.503 249.44C403.888 249.184 403.911 248.762 403.543 248.687C399.96 247.957 398.376 244.971 399.815 241.49C401.495 237.422 406.672 234.124 411.379 234.124Z" fill="white"/>
<path fill-rule="evenodd" clip-rule="evenodd" d="M406.239 272.911C414.622 272.911 423.845 267.053 426.838 259.826C429.831 252.599 425.461 246.741 417.077 246.741C408.694 246.741 399.471 252.599 396.478 259.826C393.486 267.053 397.855 272.911 406.239 272.911Z" fill="#719CFD"/>
<path fill-rule="evenodd" clip-rule="evenodd" d="M417.396 247.209C421.16 247.209 424.102 248.398 425.911 250.362C425.762 250.948 425.561 251.546 425.307 252.154C422.35 259.23 413.252 264.967 404.986 264.967C401.222 264.967 398.28 263.778 396.47 261.814C396.619 261.228 396.82 260.63 397.074 260.022C400.031 252.945 409.13 247.209 417.396 247.209Z" fill="#B9CDFF"/>
<path fill-rule="evenodd" clip-rule="evenodd" d="M420.91 280.856C423.948 280.856 427.289 278.659 428.373 275.949C429.458 273.239 427.874 271.042 424.837 271.042C421.8 271.042 418.458 273.239 417.374 275.949C416.289 278.659 417.873 280.856 420.91 280.856Z" fill="#F6BE67"/>
<path fill-rule="evenodd" clip-rule="evenodd" d="M406.423 246.741C409.461 246.741 412.802 244.544 413.887 241.835C414.971 239.125 413.388 236.928 410.35 236.928C407.313 236.928 403.971 239.125 402.887 241.835C401.802 244.544 403.386 246.741 406.423 246.741Z" fill="#3CB49F"/>
<path fill-rule="evenodd" clip-rule="evenodd" d="M388.666 283.659C391.703 283.659 395.044 281.462 396.129 278.752C397.213 276.043 395.63 273.846 392.592 273.846C389.555 273.846 386.214 276.043 385.129 278.752C384.045 281.462 385.628 283.659 388.666 283.659Z" fill="#4757A4"/>
<path fill-rule="evenodd" clip-rule="evenodd" d="M435.864 255.153C438.902 255.153 442.243 252.957 443.327 250.247C444.412 247.537 442.828 245.34 439.791 245.34C436.753 245.34 433.412 247.537 432.328 250.247C431.243 252.957 432.827 255.153 435.864 255.153Z" fill="#E9525B"/>
<path d="M201.163 17.491C201.293 16.9913 201.803 16.6915 202.303 16.8212C219.766 21.3561 231.774 30.5426 238.25 44.3613C238.469 44.8287 238.268 45.3852 237.8 45.6042C237.333 45.8232 236.776 45.6218 236.557 45.1544C230.331 31.8665 218.782 23.0317 201.833 18.6305C201.333 18.5008 201.034 17.9906 201.163 17.491Z" fill="white"/>
<path d="M413.636 299.548C415.261 299.548 416.425 300.242 416.914 301.322C418.243 300.277 419.907 299.593 421.486 299.55L421.643 299.548H434.323L429.599 311.091C428.993 312.57 427.692 313.888 426.159 314.736C426.971 315.556 427.206 316.816 426.672 318.238L426.616 318.38L421.892 329.923H409.212C407.587 329.923 406.424 329.229 405.935 328.149C404.606 329.195 402.942 329.878 401.363 329.921L401.205 329.923H388.526L393.25 318.38C393.855 316.901 395.156 315.583 396.69 314.735C395.877 313.915 395.642 312.655 396.177 311.234L396.233 311.091L400.957 299.548H413.636Z" fill="#B6D4E5"/>
<path d="M415.506 299.548C417.131 299.548 418.294 300.242 418.783 301.322C420.112 300.277 421.776 299.593 423.355 299.55L423.513 299.548H436.192L431.468 311.091C430.863 312.57 429.561 313.888 428.028 314.736C428.84 315.556 429.075 316.816 428.541 318.238L428.485 318.38L423.761 329.923H411.082C409.457 329.923 408.293 329.229 407.804 328.149C406.475 329.195 404.811 329.878 403.232 329.921L403.075 329.923H390.395L395.119 318.38C395.725 316.901 397.026 315.583 398.559 314.735C397.747 313.915 397.512 312.655 398.046 311.234L398.102 311.091L402.826 299.548H415.506Z" fill="white"/>
<path d="M424.329 315.437H413.71L409.754 324.945C409.16 326.373 409.941 327.536 411.502 327.585L411.605 327.587H422.223L426.18 318.078C426.774 316.65 425.992 315.487 424.432 315.438L424.329 315.437Z" fill="#229581"/>
<path d="M411.424 315.437H401.033C399.473 315.437 397.74 316.569 397.11 317.985L397.071 318.078L393.199 327.587H403.591L403.693 327.585C405.226 327.537 406.897 326.423 407.513 325.038L407.553 324.945L411.424 315.437Z" fill="#229581"/>
<path d="M432.921 301.885H422.529C420.969 301.885 419.236 303.018 418.607 304.433L418.567 304.526L414.696 314.035H425.087L425.189 314.033C426.722 313.986 428.394 312.871 429.01 311.486L429.049 311.394L432.921 301.885Z" fill="#229581"/>
<path d="M414.515 301.885H403.897L399.94 311.394C399.346 312.821 400.128 313.984 401.688 314.033L401.791 314.035H412.41L416.366 304.526L416.403 304.433C416.926 303.048 416.145 301.934 414.618 301.886L414.515 301.885Z" fill="#229581"/>
<path d="M546.877 254.596C545.446 252.207 541.571 252.207 538.222 254.598L538.12 254.671C536.435 255.902 535.18 257.543 534.59 259.193L534.561 259.276L528.79 261.051L528.76 260.974C528.19 259.554 526.8 258.685 524.905 258.686L524.766 258.687C524.581 258.691 524.393 258.704 524.203 258.724L524.111 258.735L523.496 249.47L523.559 249.42C526.501 247.015 527.794 243.457 526.449 241.211C525.019 238.821 521.144 238.822 517.794 241.212L517.658 241.311C517.387 241.511 517.127 241.721 516.877 241.942L516.817 241.996L511.33 241.312L511.356 241.216C512.108 238.261 510.473 235.993 507.398 235.993C504.018 235.994 500.178 238.734 498.821 242.114C497.464 245.494 499.105 248.233 502.485 248.232L502.592 248.231C504.565 248.197 506.733 247.234 508.459 245.7L508.563 245.606L514.011 246.285L513.995 246.343C513.641 247.656 513.739 248.897 514.32 249.867L514.364 249.938C515.193 251.25 516.807 251.836 518.7 251.612L518.793 251.601L519.405 260.82L519.367 260.85C518.007 261.938 516.921 263.33 516.329 264.806L516.29 264.905C515.406 267.197 515.899 269.226 517.452 270.241L517.518 270.283L514.875 275.947L514.864 275.95C513.99 276.255 513.116 276.709 512.291 277.298C508.941 279.688 507.386 283.563 508.817 285.953C510.248 288.342 514.123 288.341 517.472 285.951C520.821 283.561 522.376 279.686 520.946 277.296L520.893 277.211C520.534 276.65 520.029 276.218 519.411 275.929L519.303 275.881L521.719 270.703L521.735 270.699C524.406 270.028 527.04 267.932 528.302 265.399L528.371 265.256L534.769 263.287L534.748 263.252C536.178 265.641 540.053 265.641 543.403 263.25C546.752 260.86 548.307 256.985 546.877 254.596Z" fill="#B6D4E5"/>
<path d="M547.811 254.596C546.38 252.207 542.505 252.207 539.156 254.598L539.054 254.671C537.369 255.902 536.114 257.543 535.524 259.193L535.495 259.276L529.725 261.051L529.695 260.974C529.125 259.554 527.735 258.685 525.84 258.686L525.701 258.687C525.515 258.691 525.327 258.704 525.138 258.724L525.046 258.735L524.43 249.47L524.493 249.42C527.435 247.015 528.729 243.457 527.384 241.211C525.953 238.821 522.078 238.822 518.729 241.212L518.592 241.311C518.322 241.511 518.061 241.721 517.812 241.942L517.752 241.996L512.265 241.312L512.29 241.216C513.043 238.261 511.408 235.993 508.332 235.993C504.952 235.994 501.112 238.734 499.755 242.114C498.399 245.494 500.039 248.233 503.419 248.232L503.527 248.231C505.5 248.197 507.668 247.234 509.393 245.7L509.498 245.606L514.945 246.285L514.929 246.343C514.575 247.656 514.674 248.897 515.255 249.867L515.299 249.938C516.128 251.25 517.741 251.836 519.635 251.612L519.727 251.601L520.34 260.82L520.302 260.85C518.942 261.938 517.856 263.33 517.263 264.806L517.225 264.905C516.341 267.197 516.833 269.226 518.386 270.241L518.452 270.283L515.81 275.947L515.798 275.95C514.924 276.255 514.051 276.709 513.225 277.298C509.876 279.688 508.32 283.563 509.751 285.953C511.182 288.342 515.057 288.341 518.406 285.951C521.756 283.561 523.311 279.686 521.88 277.296L521.827 277.211C521.469 276.65 520.964 276.218 520.346 275.929L520.237 275.881L522.653 270.703L522.669 270.699C525.34 270.028 527.974 267.932 529.236 265.399L529.306 265.256L535.704 263.287L535.682 263.252C537.113 265.641 540.988 265.641 544.337 263.25C547.687 260.86 549.242 256.985 547.811 254.596Z" fill="white"/>
<path d="M540.858 258.909C541.338 258.761 541.71 258.983 541.689 259.404C541.669 259.81 541.289 260.254 540.831 260.417L540.781 260.433L523.009 265.9C522.579 266.032 522.229 265.868 522.183 265.52L522.179 265.48L520.854 245.565L503.635 243.415C503.228 243.365 503.069 242.988 503.266 242.564L503.289 242.518C503.511 242.09 504.012 241.781 504.426 241.807L504.47 241.811L522.113 244.014C522.361 244.045 522.526 244.2 522.56 244.428L522.565 244.474L523.872 264.134L540.858 258.909Z" fill="#B9CDFF"/>
<path d="M523.424 264.332C523.842 264.36 524.027 264.718 523.853 265.143L523.833 265.19L516.695 280.49C516.488 280.935 515.968 281.273 515.535 281.244C515.117 281.216 514.931 280.857 515.105 280.433L515.126 280.385L522.263 265.085C522.471 264.64 522.99 264.303 523.424 264.332Z" fill="#B9CDFF"/>
<path fill-rule="evenodd" clip-rule="evenodd" d="M516.63 248.891C517.736 250.739 520.731 250.738 523.32 248.891C525.909 247.043 527.111 244.048 526.004 242.201C524.898 240.354 521.903 240.354 519.314 242.201C516.726 244.049 515.524 247.044 516.63 248.891Z" fill="#719CFD"/>
<path fill-rule="evenodd" clip-rule="evenodd" d="M521.11 241.385C518.269 243.413 516.95 246.7 518.164 248.728C518.642 249.527 519.443 250.011 520.411 250.18C518.782 250.488 517.329 250.058 516.63 248.891C515.524 247.044 516.726 244.048 519.314 242.201C520.055 241.672 520.83 241.294 521.584 241.068C521.425 241.168 521.267 241.273 521.11 241.385Z" fill="#547ACE"/>
<path fill-rule="evenodd" clip-rule="evenodd" d="M522.701 245.548C522.529 246.84 522.997 247.741 523.747 247.559C524.497 247.378 525.244 246.183 525.417 244.891C525.589 243.598 525.121 242.697 524.371 242.879C523.621 243.06 522.874 244.255 522.701 245.548Z" fill="#B9CDFF"/>
<path fill-rule="evenodd" clip-rule="evenodd" d="M537.043 262.27C538.149 264.117 541.144 264.117 543.733 262.27C546.321 260.422 547.523 257.427 546.417 255.58C545.311 253.732 542.316 253.733 539.727 255.58C537.138 257.428 535.936 260.423 537.043 262.27Z" fill="#3CB49F"/>
<path fill-rule="evenodd" clip-rule="evenodd" d="M541.523 254.764C538.682 256.792 537.363 260.079 538.577 262.107C539.055 262.906 539.855 263.39 540.824 263.559C539.195 263.867 537.742 263.437 537.043 262.27C535.936 260.423 537.138 257.427 539.727 255.58C540.468 255.051 541.242 254.673 541.996 254.447C541.837 254.546 541.68 254.652 541.523 254.764Z" fill="#229581"/>
<path fill-rule="evenodd" clip-rule="evenodd" d="M543.114 258.927C542.942 260.219 543.41 261.12 544.16 260.938C544.91 260.757 545.657 259.562 545.829 258.269C546.002 256.977 545.533 256.076 544.784 256.258C544.034 256.439 543.286 257.634 543.114 258.927Z" fill="#50C4B0"/>
<path fill-rule="evenodd" clip-rule="evenodd" d="M511.135 284.952C512.241 286.799 515.236 286.799 517.825 284.951C520.414 283.104 521.615 280.109 520.509 278.261C519.403 276.414 516.408 276.414 513.819 278.262C511.23 280.109 510.029 283.104 511.135 284.952Z" fill="#F6BE67"/>
<path fill-rule="evenodd" clip-rule="evenodd" d="M515.615 277.445C512.774 279.473 511.455 282.761 512.669 284.788C513.147 285.587 513.948 286.071 514.916 286.241C513.287 286.548 511.834 286.119 511.135 284.951C510.029 283.104 511.23 280.109 513.819 278.261C514.56 277.732 515.335 277.355 516.089 277.129C515.93 277.228 515.772 277.334 515.615 277.445Z" fill="#D19C49"/>
<path fill-rule="evenodd" clip-rule="evenodd" d="M517.206 281.608C517.034 282.901 517.502 283.801 518.252 283.62C519.001 283.439 519.749 282.244 519.921 280.951C520.094 279.659 519.626 278.758 518.876 278.939C518.126 279.121 517.378 280.316 517.206 281.608Z" fill="#F9D8A4"/>
<path fill-rule="evenodd" clip-rule="evenodd" d="M503.987 246.851C506.6 246.851 509.567 244.733 510.616 242.12C511.664 239.507 510.396 237.39 507.783 237.39C505.171 237.39 502.203 239.508 501.154 242.12C500.106 244.733 501.374 246.851 503.987 246.851Z" fill="#F6BE67"/>
<path fill-rule="evenodd" clip-rule="evenodd" d="M502.264 240.505C501.114 243.372 502.505 245.697 505.373 245.697C506.503 245.697 507.693 245.336 508.792 244.723C507.431 246.005 505.638 246.851 503.987 246.851C501.374 246.851 500.106 244.733 501.154 242.12C501.455 241.372 501.912 240.665 502.473 240.036C502.397 240.191 502.328 240.347 502.264 240.505Z" fill="#D19C49"/>
<path fill-rule="evenodd" clip-rule="evenodd" d="M507.258 241.142C508.149 241.811 509.352 241.861 509.946 241.254C510.54 240.647 510.3 239.613 509.41 238.944C508.519 238.275 507.316 238.225 506.722 238.832C506.128 239.439 506.368 240.473 507.258 241.142Z" fill="#F9D8A4"/>
<path fill-rule="evenodd" clip-rule="evenodd" d="M521.484 269.53C524.096 269.53 527.064 267.412 528.113 264.8C529.161 262.187 527.893 260.069 525.28 260.069C522.667 260.069 519.7 262.188 518.651 264.8C517.603 267.413 518.871 269.531 521.484 269.53Z" fill="#E9525B"/>
<path fill-rule="evenodd" clip-rule="evenodd" d="M519.761 263.185C518.61 266.052 520.002 268.377 522.87 268.376C524 268.376 525.19 268.015 526.289 267.402C524.928 268.684 523.135 269.53 521.484 269.53C518.871 269.53 517.603 267.413 518.651 264.8C518.951 264.052 519.409 263.345 519.97 262.716C519.894 262.87 519.824 263.027 519.761 263.185Z" fill="#CB3E47"/>
<path fill-rule="evenodd" clip-rule="evenodd" d="M524.755 263.822C525.645 264.491 526.848 264.541 527.443 263.934C528.037 263.327 527.796 262.293 526.906 261.623C526.015 260.954 524.812 260.904 524.218 261.511C523.624 262.118 523.864 263.153 524.755 263.822Z" fill="#E98086"/>
<path d="M524.514 54.208H313.289V200.01H524.514V54.208ZM522.645 56.0773V198.141H315.158V56.0773H522.645Z" fill="#F0DECF"/>
<path d="M522.665 77.8076V79.6769H338.486V77.8076H522.665Z" fill="#F0DECF"/>
<path fill-rule="evenodd" clip-rule="evenodd" d="M407.452 90.1914H569.143C581.66 90.1914 591.808 100.339 591.808 112.856C591.808 125.373 581.66 135.521 569.143 135.521H407.452C394.935 135.521 384.788 125.373 384.788 112.856C384.788 100.339 394.935 90.1914 407.452 90.1914Z" fill="#E9525B"/>
<path fill-rule="evenodd" clip-rule="evenodd" d="M370.534 144.867H532.225C544.742 144.867 554.89 155.015 554.89 167.532C554.89 180.049 544.742 190.197 532.225 190.197H370.534C358.017 190.197 347.87 180.049 347.87 167.532C347.87 155.015 358.017 144.867 370.534 144.867Z" fill="#F6BE67"/>
<path d="M517.222 175.709C517.697 175.709 518.078 175.567 518.364 175.282C518.65 174.996 518.871 174.485 519.027 173.749C519.094 173.431 519.172 172.972 519.261 172.373C519.35 171.773 519.432 171.286 519.506 170.91C519.58 170.535 519.707 170.062 519.885 169.491C520.309 168.199 520.775 167.104 521.284 166.209C521.793 165.313 522.287 164.564 522.766 163.961C523.245 163.358 523.672 162.807 524.047 162.309C524.423 161.811 524.61 161.41 524.61 161.107C524.61 160.608 524.45 160.251 524.131 160.034C523.812 159.817 523.295 159.709 522.582 159.709H515.16C514.573 159.709 514.116 159.781 513.789 159.926C513.462 160.07 513.299 160.392 513.299 160.89C513.299 161.359 513.453 161.704 513.761 161.924C514.07 162.145 514.536 162.255 515.16 162.255H521.122C520.186 163.41 519.378 164.571 518.698 165.738C518.018 166.904 517.452 168.042 516.999 169.15C516.546 170.259 516.219 171.21 516.018 172.005C515.817 172.799 515.717 173.427 515.717 173.89C515.717 174.489 515.855 174.942 516.129 175.249C516.404 175.556 516.768 175.709 517.222 175.709ZM526.749 175.709C527.218 175.709 527.628 175.566 527.976 175.279C528.324 174.992 528.498 174.597 528.498 174.094C528.498 173.654 528.324 173.28 527.976 172.972C527.628 172.664 527.207 172.509 526.713 172.509C526.22 172.509 525.805 172.665 525.469 172.977C525.132 173.289 524.964 173.661 524.964 174.094C524.964 174.604 525.14 175.001 525.492 175.284C525.844 175.568 526.263 175.709 526.749 175.709ZM535.06 175.709C536.257 175.709 537.296 175.499 538.178 175.077C539.061 174.655 539.73 174.072 540.186 173.327C540.642 172.582 540.87 171.751 540.87 170.835C540.87 170.21 540.764 169.641 540.551 169.129C540.338 168.616 540.022 168.166 539.603 167.777C539.184 167.388 538.657 167.074 538.021 166.834C538.769 166.477 539.332 166.019 539.709 165.46C540.087 164.9 540.276 164.264 540.276 163.552C540.276 162.992 540.167 162.463 539.951 161.965C539.734 161.467 539.401 161.02 538.952 160.624C538.504 160.228 537.943 159.917 537.27 159.692C536.597 159.466 535.816 159.354 534.926 159.354C533.871 159.354 532.95 159.546 532.161 159.931C531.372 160.317 530.774 160.831 530.366 161.474C529.959 162.118 529.755 162.803 529.755 163.53C529.755 165.034 530.521 166.136 532.054 166.834C530.155 167.561 529.205 168.902 529.205 170.857C529.205 171.773 529.43 172.6 529.878 173.338C530.327 174.076 530.993 174.655 531.875 175.077C532.757 175.499 533.819 175.709 535.06 175.709ZM535.049 166.109C534.37 166.109 533.816 165.895 533.386 165.468C532.955 165.04 532.74 164.504 532.74 163.861C532.74 163.164 532.95 162.594 533.369 162.151C533.789 161.708 534.341 161.487 535.027 161.487C535.479 161.487 535.88 161.589 536.23 161.794C536.581 161.998 536.852 162.278 537.046 162.634C537.239 162.99 537.336 163.391 537.336 163.838C537.336 164.171 537.281 164.476 537.171 164.752C537.062 165.028 536.907 165.267 536.706 165.468C536.506 165.668 536.265 165.825 535.984 165.939C535.703 166.052 535.392 166.109 535.049 166.109ZM534.861 173.576C534.332 173.576 533.853 173.458 533.424 173.221C532.995 172.983 532.656 172.648 532.407 172.214C532.158 171.78 532.033 171.279 532.033 170.71C532.033 169.82 532.298 169.127 532.826 168.631C533.355 168.135 534.01 167.887 534.792 167.887C535.344 167.887 535.842 168 536.287 168.226C536.731 168.452 537.076 168.777 537.321 169.2C537.566 169.623 537.689 170.119 537.689 170.688C537.689 171.257 537.566 171.76 537.321 172.198C537.076 172.635 536.739 172.974 536.31 173.215C535.88 173.456 535.398 173.576 534.861 173.576Z" fill="white"/>
<path d="M407.452 93.9297C396.999 93.9297 388.526 102.403 388.526 112.856C388.526 123.309 396.999 131.782 407.452 131.782C417.905 131.782 426.378 123.309 426.378 112.856C426.378 102.403 417.905 93.9297 407.452 93.9297ZM407.452 95.7989C416.872 95.7989 424.509 103.436 424.509 112.856C424.509 122.276 416.872 129.913 407.452 129.913C398.032 129.913 390.395 122.276 390.395 112.856C390.395 103.436 398.032 95.7989 407.452 95.7989Z" fill="white"/>
<path d="M370.534 148.605C360.082 148.605 351.608 157.079 351.608 167.532C351.608 177.984 360.082 186.458 370.534 186.458C380.987 186.458 389.461 177.984 389.461 167.532C389.461 157.079 380.987 148.605 370.534 148.605ZM370.534 150.475C379.955 150.475 387.591 158.111 387.591 167.532C387.591 176.952 379.955 184.589 370.534 184.589C361.114 184.589 353.477 176.952 353.477 167.532C353.477 158.111 361.114 150.475 370.534 150.475Z" fill="white"/>
<path d="M370.747 171.037C376.575 171.037 381.833 174.25 384.54 179.281L384.641 179.471L384.948 180.061L384.49 180.545C380.939 184.294 376.015 186.458 370.747 186.458C365.568 186.458 360.72 184.366 357.183 180.732L357.005 180.545L356.547 180.062L356.854 179.471C359.531 174.331 364.847 171.037 370.747 171.037ZM370.747 172.906C365.91 172.906 361.519 175.42 359.034 179.419L358.92 179.605L358.838 179.743L358.877 179.782C361.913 182.726 365.935 184.457 370.244 184.582L370.498 184.587L370.747 184.589C375.163 184.589 379.307 182.904 382.441 179.95L382.656 179.743L382.569 179.595C380.177 175.616 375.919 173.062 371.186 172.913L370.964 172.908L370.747 172.906ZM370.747 155.148C374.748 155.148 377.991 158.391 377.991 162.392C377.991 166.392 374.748 169.635 370.747 169.635C366.747 169.635 363.504 166.392 363.504 162.392C363.504 158.391 366.747 155.148 370.747 155.148ZM370.747 157.018C367.779 157.018 365.373 159.424 365.373 162.392C365.373 165.36 367.779 167.766 370.747 167.766C373.715 167.766 376.121 165.36 376.121 162.392C376.121 159.424 373.715 157.018 370.747 157.018Z" fill="white"/>
<path d="M407.452 116.361C413.28 116.361 418.538 119.574 421.245 124.605L421.345 124.795L421.653 125.386L421.195 125.869C417.644 129.619 412.72 131.783 407.452 131.783C402.273 131.783 397.425 129.69 393.888 126.056L393.71 125.87L393.251 125.386L393.559 124.795C396.235 119.655 401.552 116.361 407.452 116.361ZM407.452 118.231C402.615 118.231 398.224 120.744 395.739 124.743L395.625 124.929L395.543 125.068L395.582 125.106C398.618 128.05 402.64 129.781 406.949 129.906L407.203 129.912L407.452 129.913C411.868 129.913 416.012 128.228 419.146 125.274L419.322 125.106L419.361 125.067L419.273 124.919C416.882 120.94 412.624 118.386 407.891 118.237L407.668 118.232L407.452 118.231ZM407.452 100.473C411.453 100.473 414.696 103.716 414.696 107.716C414.696 111.716 411.453 114.959 407.452 114.959C403.452 114.959 400.209 111.716 400.209 107.716C400.209 103.716 403.452 100.473 407.452 100.473ZM407.452 102.342C404.484 102.342 402.078 104.748 402.078 107.716C402.078 110.684 404.484 113.09 407.452 113.09C410.42 113.09 412.826 110.684 412.826 107.716C412.826 104.748 410.42 102.342 407.452 102.342Z" fill="white"/>
<path d="M530.589 98.1357H440.398C436.784 98.1357 433.855 101.065 433.855 104.678C433.855 108.291 436.784 111.221 440.398 111.221H530.589C534.202 111.221 537.132 108.291 537.132 104.678C537.132 101.065 534.202 98.1357 530.589 98.1357ZM440.398 100.005H530.589C533.17 100.005 535.262 102.097 535.262 104.678C535.262 107.259 533.17 109.351 530.589 109.351H440.398C437.817 109.351 435.724 107.259 435.724 104.678C435.724 102.097 437.817 100.005 440.398 100.005Z" fill="white"/>
<path d="M493.672 152.812H403.48C399.867 152.812 396.938 155.741 396.938 159.354C396.938 162.967 399.867 165.896 403.48 165.896H493.672C497.285 165.896 500.214 162.967 500.214 159.354C500.214 155.741 497.285 152.812 493.672 152.812ZM403.48 154.681H493.672C496.252 154.681 498.345 156.773 498.345 159.354C498.345 161.935 496.252 164.027 493.672 164.027H403.48C400.899 164.027 398.807 161.935 398.807 159.354C398.807 156.773 400.899 154.681 403.48 154.681Z" fill="white"/>
<path d="M489.33 172.673C489.847 172.673 490.265 173.091 490.265 173.607C490.265 174.1 489.884 174.504 489.4 174.54L489.33 174.542H397.872C397.356 174.542 396.938 174.124 396.938 173.607C396.938 173.115 397.319 172.711 397.803 172.675L397.872 172.673H489.33Z" fill="white"/>
<path d="M461.292 180.149C461.808 180.149 462.226 180.568 462.226 181.084C462.226 181.577 461.845 181.98 461.361 182.016L461.292 182.019H397.872C397.356 182.019 396.938 181.6 396.938 181.084C396.938 180.591 397.319 180.188 397.803 180.152L397.872 180.149H461.292Z" fill="white"/>
<path d="M526.248 117.997C526.764 117.997 527.183 118.416 527.183 118.932C527.183 119.424 526.801 119.828 526.318 119.864L526.248 119.866H434.79C434.274 119.866 433.855 119.448 433.855 118.932C433.855 118.439 434.237 118.035 434.72 118L434.79 117.997H526.248Z" fill="white"/>
<path d="M498.209 125.474C498.725 125.474 499.144 125.892 499.144 126.408C499.144 126.901 498.762 127.305 498.279 127.34L498.209 127.343H434.79C434.274 127.343 433.855 126.924 433.855 126.408C433.855 125.916 434.237 125.512 434.72 125.476L434.79 125.474H498.209Z" fill="white"/>
<path d="M555.894 121.035C557.054 121.035 558.062 120.824 558.917 120.402C559.773 119.981 560.422 119.397 560.864 118.652C561.307 117.907 561.528 117.077 561.528 116.161C561.528 115.535 561.424 114.967 561.218 114.454C561.011 113.942 560.705 113.491 560.299 113.102C559.893 112.713 559.381 112.399 558.765 112.159C559.49 111.803 560.036 111.345 560.402 110.785C560.768 110.225 560.951 109.589 560.951 108.877C560.951 108.317 560.846 107.788 560.636 107.29C560.426 106.792 560.103 106.345 559.668 105.949C559.233 105.553 558.689 105.242 558.036 105.017C557.384 104.791 556.626 104.679 555.763 104.679C554.741 104.679 553.847 104.871 553.082 105.257C552.317 105.642 551.737 106.156 551.342 106.8C550.947 107.443 550.749 108.128 550.749 108.855C550.749 110.36 551.492 111.461 552.979 112.159C551.137 112.886 550.216 114.227 550.216 116.182C550.216 117.098 550.434 117.925 550.869 118.663C551.304 119.401 551.949 119.981 552.805 120.402C553.66 120.824 554.69 121.035 555.894 121.035ZM556.06 111.434C555.381 111.434 554.827 111.221 554.397 110.793C553.966 110.365 553.751 109.829 553.751 109.186C553.751 108.489 553.961 107.919 554.38 107.476C554.8 107.034 555.352 106.812 556.038 106.812C556.49 106.812 556.891 106.914 557.241 107.119C557.591 107.323 557.863 107.603 558.056 107.959C558.25 108.315 558.346 108.716 558.346 109.163C558.346 109.496 558.292 109.801 558.182 110.077C558.073 110.354 557.918 110.592 557.717 110.793C557.517 110.993 557.276 111.151 556.995 111.264C556.714 111.378 556.402 111.434 556.06 111.434ZM555.872 118.901C555.409 118.901 554.99 118.783 554.615 118.546C554.239 118.309 553.942 117.973 553.725 117.539C553.507 117.105 553.398 116.604 553.398 116.035C553.398 115.145 553.629 114.452 554.092 113.956C554.554 113.46 555.128 113.212 555.812 113.212C556.294 113.212 556.73 113.325 557.119 113.551C557.508 113.778 557.81 114.102 558.024 114.525C558.239 114.948 558.346 115.444 558.346 116.013C558.346 116.582 558.239 117.085 558.024 117.523C557.81 117.96 557.515 118.3 557.139 118.54C556.764 118.781 556.341 118.901 555.872 118.901ZM563.841 121.035C564.264 121.035 564.632 120.891 564.946 120.604C565.259 120.317 565.416 119.922 565.416 119.419C565.416 118.979 565.259 118.605 564.946 118.297C564.632 117.989 564.253 117.835 563.809 117.835C563.366 117.835 562.992 117.991 562.689 118.302C562.386 118.614 562.235 118.986 562.235 119.419C562.235 119.929 562.393 120.326 562.71 120.609C563.027 120.893 563.404 121.035 563.841 121.035ZM571.955 121.035C572.824 121.035 573.618 120.898 574.336 120.625C575.054 120.352 575.674 119.974 576.197 119.49C576.72 119.006 577.116 118.454 577.385 117.836C577.653 117.217 577.788 116.576 577.788 115.914C577.788 115.361 577.688 114.846 577.49 114.369C577.291 113.892 576.994 113.457 576.6 113.064C576.206 112.671 575.722 112.322 575.148 112.016C575.744 111.521 576.203 111.013 576.523 110.493C576.843 109.972 577.003 109.348 577.003 108.62C577.003 108.067 576.893 107.55 576.672 107.07C576.451 106.589 576.123 106.167 575.689 105.803C575.255 105.439 574.743 105.161 574.154 104.968C573.564 104.775 572.913 104.679 572.198 104.679C571.381 104.679 570.641 104.793 569.978 105.023C569.315 105.252 568.761 105.556 568.316 105.934C567.87 106.313 567.531 106.711 567.299 107.13C567.067 107.548 566.951 107.947 566.951 108.326C566.951 108.719 567.075 109.033 567.321 109.27C567.568 109.507 567.839 109.625 568.133 109.625C568.384 109.625 568.605 109.581 568.796 109.494C568.988 109.406 569.12 109.286 569.194 109.133C569.319 108.85 569.457 108.548 569.608 108.227C569.759 107.907 569.919 107.645 570.089 107.441C570.258 107.237 570.488 107.074 570.779 106.95C571.07 106.826 571.44 106.764 571.889 106.764C572.552 106.764 573.078 106.966 573.469 107.37C573.859 107.774 574.054 108.256 574.054 108.817C574.054 109.552 573.809 110.116 573.32 110.509C572.83 110.902 572.246 111.099 571.569 111.099H571.116C570.593 111.099 570.199 111.206 569.934 111.421C569.669 111.636 569.536 111.918 569.536 112.267C569.536 112.624 569.647 112.902 569.868 113.102C570.089 113.303 570.402 113.403 570.807 113.403C570.895 113.403 571.094 113.388 571.403 113.359C571.712 113.33 571.941 113.315 572.088 113.315C572.927 113.315 573.583 113.557 574.054 114.041C574.525 114.525 574.761 115.193 574.761 116.045C574.761 116.62 574.623 117.126 574.347 117.563C574.071 117.999 573.721 118.329 573.298 118.551C572.874 118.773 572.434 118.884 571.977 118.884C571.182 118.884 570.565 118.638 570.127 118.147C569.689 117.655 569.278 116.904 568.896 115.892C568.837 115.725 568.711 115.581 568.52 115.461C568.329 115.341 568.13 115.281 567.923 115.281C567.511 115.281 567.167 115.41 566.891 115.668C566.614 115.927 566.476 116.267 566.476 116.689C566.476 117.017 566.592 117.432 566.824 117.934C567.056 118.436 567.399 118.922 567.852 119.391C568.305 119.861 568.881 120.252 569.58 120.565C570.28 120.878 571.072 121.035 571.955 121.035Z" fill="white"/>
<path d="M331.39 28.4023C326.615 28.4023 322.745 32.273 322.745 37.0476C322.745 41.8223 326.615 45.6929 331.39 45.6929C336.165 45.6929 340.035 41.8223 340.035 37.0476C340.035 32.273 336.165 28.4023 331.39 28.4023ZM331.39 30.2716C335.132 30.2716 338.166 33.3053 338.166 37.0476C338.166 40.79 335.132 43.8237 331.39 43.8237C327.648 43.8237 324.614 40.79 324.614 37.0476C324.614 33.3053 327.648 30.2716 331.39 30.2716Z" fill="#F0DECF"/>
<path d="M363.401 29.3369H347.512V45.2256H363.401V29.3369ZM361.531 31.2061V43.3563H349.381V31.2061H361.531Z" fill="#F0DECF"/>
<path d="M391.687 43.3564V45.2257H371.789V43.3564H391.687Z" fill="#F0DECF"/>
</svg>
