<svg width="576" height="587" viewBox="0 0 576 587" fill="none" xmlns="http://www.w3.org/2000/svg">
<g opacity="0.3" filter="url(#filter0_f_4_536)">
<rect x="-56" y="19" width="613" height="548.512" rx="23.1868" fill="white"/>
<g clip-path="url(#clip0_4_536)">
<circle cx="10.662" cy="87.1111" r="8.69504" fill="#1E739A"/>
<path d="M31.395 81.3196H33.1488L36.6565 87.2233H36.8047L40.3124 81.3196H42.0662L37.4964 88.7548V93.9669H35.9648V88.7548L31.395 81.3196ZM46.3612 94.1645C45.5049 94.1645 44.7535 93.9607 44.1072 93.5532C43.4649 93.1456 42.9627 92.5754 42.6004 91.8426C42.2422 91.1097 42.0631 90.2534 42.0631 89.2736C42.0631 88.2855 42.2422 87.423 42.6004 86.6861C42.9627 85.9491 43.4649 85.3769 44.1072 84.9693C44.7535 84.5617 45.5049 84.3579 46.3612 84.3579C47.2175 84.3579 47.9668 84.5617 48.6091 84.9693C49.2554 85.3769 49.7577 85.9491 50.1159 86.6861C50.4782 87.423 50.6593 88.2855 50.6593 89.2736C50.6593 90.2534 50.4782 91.1097 50.1159 91.8426C49.7577 92.5754 49.2554 93.1456 48.6091 93.5532C47.9668 93.9607 47.2175 94.1645 46.3612 94.1645ZM46.3612 92.8553C47.0117 92.8553 47.5469 92.6886 47.9668 92.3551C48.3868 92.0217 48.6976 91.5832 48.8993 91.0398C49.1011 90.4963 49.2019 89.9076 49.2019 89.2736C49.2019 88.6396 49.1011 88.0488 48.8993 87.5012C48.6976 86.9537 48.3868 86.5111 47.9668 86.1735C47.5469 85.8359 47.0117 85.6671 46.3612 85.6671C45.7107 85.6671 45.1755 85.8359 44.7556 86.1735C44.3357 86.5111 44.0248 86.9537 43.8231 87.5012C43.6214 88.0488 43.5205 88.6396 43.5205 89.2736C43.5205 89.9076 43.6214 90.4963 43.8231 91.0398C44.0248 91.5832 44.3357 92.0217 44.7556 92.3551C45.1755 92.6886 45.7107 92.8553 46.3612 92.8553ZM58.8619 90.0887V84.4814H60.3193V93.9669H58.8619V92.3613H58.7631C58.5408 92.843 58.1949 93.2526 57.7256 93.5902C57.2563 93.9237 56.6634 94.0904 55.9471 94.0904C55.3542 94.0904 54.8272 93.9607 54.3661 93.7014C53.905 93.4379 53.5428 93.0427 53.2793 92.5157C53.0158 91.9846 52.884 91.3156 52.884 90.5087V84.4814H54.3414V90.4099C54.3414 91.1015 54.5349 91.6532 54.9219 92.0649C55.313 92.4766 55.8112 92.6824 56.4164 92.6824C56.7787 92.6824 57.1472 92.5898 57.5218 92.4045C57.9006 92.2193 58.2176 91.9352 58.4728 91.5523C58.7322 91.1694 58.8619 90.6816 58.8619 90.0887ZM62.9886 93.9669V84.4814H64.3966V85.9141H64.4954C64.6683 85.4448 64.9812 85.064 65.4341 84.7717C65.887 84.4794 66.3975 84.3332 66.9656 84.3332C67.0727 84.3332 67.2065 84.3353 67.367 84.3394C67.5276 84.3435 67.649 84.3497 67.7314 84.3579V85.84C67.682 85.8277 67.5687 85.8091 67.3917 85.7844C67.2188 85.7556 67.0356 85.7412 66.8421 85.7412C66.381 85.7412 65.9693 85.838 65.607 86.0315C65.2488 86.2208 64.9648 86.4843 64.7548 86.8219C64.549 87.1554 64.446 87.5362 64.446 87.9644V93.9669H62.9886ZM76.8448 93.9669L73.3865 81.3196H74.9428L77.5858 91.6202H77.7094L80.4019 81.3196H82.131L84.8235 91.6202H84.947L87.5901 81.3196H89.1463L85.688 93.9669H84.1071L81.3158 83.8886H81.217L78.4257 93.9669H76.8448ZM93.9508 94.1645C93.0368 94.1645 92.2484 93.9628 91.5856 93.5593C90.9269 93.1518 90.4184 92.5836 90.0603 91.8549C89.7062 91.1221 89.5292 90.2699 89.5292 89.2983C89.5292 88.3267 89.7062 87.4703 90.0603 86.7293C90.4184 85.9841 90.9166 85.4036 91.5547 84.9878C92.197 84.5679 92.9463 84.3579 93.8026 84.3579C94.2966 84.3579 94.7845 84.4403 95.2662 84.6049C95.7478 84.7696 96.1863 85.0372 96.5815 85.4077C96.9768 85.7742 97.2917 86.26 97.5264 86.8651C97.761 87.4703 97.8784 88.2155 97.8784 89.1007V89.7182H90.5666V88.4584H96.3963C96.3963 87.9232 96.2892 87.4456 96.0751 87.0257C95.8652 86.6058 95.5646 86.2744 95.1735 86.0315C94.7865 85.7886 94.3296 85.6671 93.8026 85.6671C93.2221 85.6671 92.7198 85.8112 92.2958 86.0994C91.8758 86.3835 91.5527 86.754 91.3262 87.211C91.0998 87.668 90.9866 88.1579 90.9866 88.6807V89.5206C90.9866 90.2369 91.1101 90.8442 91.3571 91.3424C91.6082 91.8364 91.9561 92.2131 92.4008 92.4725C92.8454 92.7277 93.3621 92.8553 93.9508 92.8553C94.3337 92.8553 94.6795 92.8018 94.9883 92.6948C95.3012 92.5836 95.5708 92.4189 95.7973 92.2007C96.0237 91.9784 96.1987 91.7026 96.3222 91.3732L97.7302 91.7685C97.582 92.246 97.3329 92.666 96.9829 93.0283C96.633 93.3864 96.2007 93.6664 95.6861 93.8681C95.1715 94.0657 94.593 94.1645 93.9508 94.1645ZM100.095 93.9669V84.4814H101.553V93.9669H100.095ZM100.836 82.9005C100.552 82.9005 100.307 82.8038 100.102 82.6103C99.8998 82.4168 99.7989 82.1842 99.7989 81.9124C99.7989 81.6407 99.8998 81.4081 100.102 81.2146C100.307 81.0211 100.552 80.9244 100.836 80.9244C101.12 80.9244 101.363 81.0211 101.565 81.2146C101.771 81.4081 101.874 81.6407 101.874 81.9124C101.874 82.1842 101.771 82.4168 101.565 82.6103C101.363 82.8038 101.12 82.9005 100.836 82.9005ZM108.051 97.7216C107.347 97.7216 106.742 97.631 106.235 97.4499C105.729 97.2728 105.307 97.0382 104.969 96.7459C104.636 96.4577 104.37 96.1489 104.173 95.8196L105.334 95.0044C105.465 95.1773 105.632 95.3749 105.834 95.5972C106.036 95.8237 106.311 96.0192 106.661 96.1839C107.015 96.3527 107.479 96.4371 108.051 96.4371C108.817 96.4371 109.449 96.2518 109.947 95.8813C110.445 95.5108 110.694 94.9303 110.694 94.1398V92.2131H110.57C110.463 92.386 110.311 92.6001 110.113 92.8553C109.92 93.1065 109.64 93.3308 109.274 93.5285C108.911 93.722 108.421 93.8187 107.804 93.8187C107.038 93.8187 106.351 93.6376 105.741 93.2753C105.136 92.913 104.656 92.386 104.302 91.6944C103.952 91.0027 103.777 90.1628 103.777 89.1748C103.777 88.2032 103.948 87.3571 104.29 86.6367C104.632 85.9121 105.107 85.3522 105.717 84.9569C106.326 84.5576 107.03 84.3579 107.829 84.3579C108.446 84.3579 108.936 84.4608 109.298 84.6667C109.665 84.8684 109.945 85.099 110.138 85.3583C110.336 85.6136 110.488 85.8236 110.595 85.9882H110.743V84.4814H112.151V94.2386C112.151 95.0538 111.966 95.7166 111.596 96.2271C111.229 96.7418 110.735 97.1185 110.113 97.3572C109.496 97.6001 108.808 97.7216 108.051 97.7216ZM108.001 92.5095C108.586 92.5095 109.08 92.3757 109.484 92.1081C109.887 91.8405 110.194 91.4556 110.404 90.9533C110.614 90.451 110.719 89.85 110.719 89.1501C110.719 88.4666 110.616 87.8635 110.41 87.3407C110.204 86.8178 109.899 86.4082 109.496 86.1117C109.092 85.8153 108.594 85.6671 108.001 85.6671C107.384 85.6671 106.869 85.8236 106.458 86.1364C106.05 86.4493 105.743 86.8693 105.537 87.3962C105.336 87.9232 105.235 88.5078 105.235 89.1501C105.235 89.8088 105.338 90.3913 105.544 90.8977C105.754 91.4 106.062 91.7952 106.47 92.0834C106.882 92.3675 107.392 92.5095 108.001 92.5095ZM116.277 88.2608V93.9669H114.819V81.3196H116.277V85.9635H116.4C116.622 85.4736 116.956 85.0846 117.401 84.7964C117.849 84.5041 118.446 84.3579 119.191 84.3579C119.838 84.3579 120.404 84.4876 120.89 84.747C121.375 85.0022 121.752 85.3954 122.02 85.9265C122.291 86.4535 122.427 87.1245 122.427 87.9397V93.9669H120.97V88.0385C120.97 87.2851 120.774 86.7025 120.383 86.2908C119.996 85.875 119.459 85.6671 118.771 85.6671C118.294 85.6671 117.866 85.768 117.487 85.9697C117.112 86.1714 116.816 86.4658 116.598 86.8528C116.384 87.2398 116.277 87.7091 116.277 88.2608ZM129.219 84.4814V85.7165H124.303V84.4814H129.219ZM125.736 82.2089H127.193V91.2497C127.193 91.6614 127.253 91.9702 127.372 92.176C127.496 92.3778 127.652 92.5136 127.842 92.5836C128.035 92.6495 128.239 92.6824 128.453 92.6824C128.614 92.6824 128.745 92.6742 128.848 92.6577C128.951 92.6371 129.034 92.6207 129.095 92.6083L129.392 93.9175C129.293 93.9546 129.155 93.9916 128.978 94.0287C128.801 94.0698 128.577 94.0904 128.305 94.0904C127.893 94.0904 127.49 94.0019 127.094 93.8249C126.703 93.6479 126.378 93.3782 126.119 93.0159C125.863 92.6536 125.736 92.1966 125.736 91.6449V82.2089Z" fill="#77838F"/>
</g>
<g clip-path="url(#clip1_4_536)">
<circle cx="204.851" cy="87.1111" r="8.69504" fill="#A3C6D6"/>
<path d="M228.202 81.3196V93.9669H226.671V81.3196H228.202ZM234.657 94.1645C233.867 94.1645 233.169 93.9649 232.564 93.5655C231.959 93.1621 231.485 92.5939 231.144 91.8611C230.802 91.1242 230.631 90.2534 230.631 89.2489C230.631 88.2526 230.802 87.388 231.144 86.6552C231.485 85.9224 231.961 85.3563 232.57 84.9569C233.179 84.5576 233.883 84.3579 234.682 84.3579C235.3 84.3579 235.787 84.4608 236.146 84.6667C236.508 84.8684 236.784 85.099 236.973 85.3583C237.167 85.6136 237.317 85.8236 237.424 85.9882H237.547V81.3196H239.005V93.9669H237.597V92.5095H237.424C237.317 92.6824 237.165 92.9006 236.967 93.1641C236.769 93.4235 236.487 93.6561 236.121 93.8619C235.755 94.0637 235.267 94.1645 234.657 94.1645ZM234.855 92.8553C235.44 92.8553 235.934 92.703 236.337 92.3984C236.741 92.0896 237.047 91.6635 237.257 91.12C237.467 90.5725 237.572 89.9405 237.572 89.2242C237.572 88.5161 237.469 87.8964 237.263 87.3654C237.058 86.8302 236.753 86.4143 236.349 86.1179C235.946 85.8174 235.448 85.6671 234.855 85.6671C234.237 85.6671 233.723 85.8256 233.311 86.1426C232.904 86.4555 232.597 86.8816 232.391 87.4209C232.189 87.9561 232.088 88.5572 232.088 89.2242C232.088 89.8994 232.191 90.5128 232.397 91.0645C232.607 91.612 232.916 92.0484 233.323 92.3737C233.735 92.6948 234.246 92.8553 234.855 92.8553ZM245.853 94.1645C244.94 94.1645 244.151 93.9628 243.488 93.5593C242.83 93.1518 242.321 92.5836 241.963 91.8549C241.609 91.1221 241.432 90.2699 241.432 89.2983C241.432 88.3267 241.609 87.4703 241.963 86.7293C242.321 85.9841 242.819 85.4036 243.457 84.9878C244.1 84.5679 244.849 84.3579 245.705 84.3579C246.199 84.3579 246.687 84.4403 247.169 84.6049C247.651 84.7696 248.089 85.0372 248.484 85.4077C248.879 85.7742 249.194 86.26 249.429 86.8651C249.664 87.4703 249.781 88.2155 249.781 89.1007V89.7182H242.469V88.4584H248.299C248.299 87.9232 248.192 87.4456 247.978 87.0257C247.768 86.6058 247.467 86.2744 247.076 86.0315C246.689 85.7886 246.232 85.6671 245.705 85.6671C245.125 85.6671 244.623 85.8112 244.198 86.0994C243.779 86.3835 243.455 86.754 243.229 87.211C243.002 87.668 242.889 88.1579 242.889 88.6807V89.5206C242.889 90.2369 243.013 90.8442 243.26 91.3424C243.511 91.8364 243.859 92.2131 244.303 92.4725C244.748 92.7277 245.265 92.8553 245.853 92.8553C246.236 92.8553 246.582 92.8018 246.891 92.6948C247.204 92.5836 247.474 92.4189 247.7 92.2007C247.926 91.9784 248.101 91.7026 248.225 91.3732L249.633 91.7685C249.485 92.246 249.236 92.666 248.886 93.0283C248.536 93.3864 248.103 93.6664 247.589 93.8681C247.074 94.0657 246.496 94.1645 245.853 94.1645ZM254.789 94.1892C254.188 94.1892 253.643 94.076 253.153 93.8496C252.663 93.619 252.274 93.2876 251.986 92.8553C251.698 92.4189 251.553 91.892 251.553 91.2744C251.553 90.731 251.66 90.2905 251.875 89.9529C252.089 89.6112 252.375 89.3436 252.733 89.1501C253.091 88.9566 253.486 88.8125 253.919 88.7178C254.355 88.619 254.793 88.5408 255.234 88.4831C255.81 88.409 256.278 88.3534 256.636 88.3164C256.998 88.2752 257.262 88.2073 257.426 88.1126C257.595 88.0179 257.679 87.8532 257.679 87.6186V87.5692C257.679 86.9598 257.513 86.4864 257.179 86.1488C256.85 85.8112 256.35 85.6424 255.679 85.6424C254.983 85.6424 254.437 85.7947 254.042 86.0994C253.647 86.404 253.369 86.7293 253.208 87.0751L251.825 86.5811C252.072 86.0047 252.402 85.556 252.813 85.2348C253.229 84.9096 253.682 84.6832 254.172 84.5555C254.666 84.4238 255.152 84.3579 255.629 84.3579C255.934 84.3579 256.284 84.395 256.679 84.4691C257.078 84.5391 257.463 84.6852 257.834 84.9075C258.208 85.1298 258.519 85.4654 258.766 85.9141C259.013 86.3629 259.137 86.964 259.137 87.7174V93.9669H257.679V92.6824H257.605C257.507 92.8883 257.342 93.1085 257.111 93.3432C256.881 93.5779 256.574 93.7775 256.191 93.9422C255.808 94.1069 255.341 94.1892 254.789 94.1892ZM255.012 92.88C255.588 92.88 256.074 92.7668 256.469 92.5404C256.868 92.314 257.169 92.0217 257.371 91.6635C257.577 91.3053 257.679 90.9286 257.679 90.5334V89.1995C257.618 89.2736 257.482 89.3415 257.272 89.4033C257.066 89.4609 256.827 89.5124 256.556 89.5576C256.288 89.5988 256.027 89.6359 255.771 89.6688C255.52 89.6976 255.316 89.7223 255.16 89.7429C254.781 89.7923 254.427 89.8726 254.098 89.9838C253.772 90.0908 253.509 90.2534 253.307 90.4716C253.11 90.6857 253.011 90.978 253.011 91.3485C253.011 91.8549 253.198 92.2378 253.573 92.4972C253.952 92.7524 254.431 92.88 255.012 92.88ZM263.254 81.3196V93.9669H261.797V81.3196H263.254ZM273.31 93.9669L269.851 81.3196H271.407L274.051 91.6202H274.174L276.867 81.3196H278.596L281.288 91.6202H281.412L284.055 81.3196H285.611L282.153 93.9669H280.572L277.781 83.8886H277.682L274.89 93.9669H273.31ZM290.416 94.1645C289.502 94.1645 288.713 93.9628 288.05 93.5593C287.392 93.1518 286.883 92.5836 286.525 91.8549C286.171 91.1221 285.994 90.2699 285.994 89.2983C285.994 88.3267 286.171 87.4703 286.525 86.7293C286.883 85.9841 287.381 85.4036 288.019 84.9878C288.662 84.5679 289.411 84.3579 290.267 84.3579C290.761 84.3579 291.249 84.4403 291.731 84.6049C292.213 84.7696 292.651 85.0372 293.046 85.4077C293.442 85.7742 293.756 86.26 293.991 86.8651C294.226 87.4703 294.343 88.2155 294.343 89.1007V89.7182H287.031V88.4584H292.861C292.861 87.9232 292.754 87.4456 292.54 87.0257C292.33 86.6058 292.029 86.2744 291.638 86.0315C291.251 85.7886 290.794 85.6671 290.267 85.6671C289.687 85.6671 289.185 85.8112 288.761 86.0994C288.341 86.3835 288.017 86.754 287.791 87.211C287.565 87.668 287.451 88.1579 287.451 88.6807V89.5206C287.451 90.2369 287.575 90.8442 287.822 91.3424C288.073 91.8364 288.421 92.2131 288.865 92.4725C289.31 92.7277 289.827 92.8553 290.416 92.8553C290.798 92.8553 291.144 92.8018 291.453 92.6948C291.766 92.5836 292.036 92.4189 292.262 92.2007C292.488 91.9784 292.663 91.7026 292.787 91.3732L294.195 91.7685C294.047 92.246 293.798 92.666 293.448 93.0283C293.098 93.3864 292.665 93.6664 292.151 93.8681C291.636 94.0657 291.058 94.1645 290.416 94.1645ZM296.56 93.9669V84.4814H298.018V93.9669H296.56ZM297.301 82.9005C297.017 82.9005 296.772 82.8038 296.566 82.6103C296.365 82.4168 296.264 82.1842 296.264 81.9124C296.264 81.6407 296.365 81.4081 296.566 81.2146C296.772 81.0211 297.017 80.9244 297.301 80.9244C297.585 80.9244 297.828 81.0211 298.03 81.2146C298.236 81.4081 298.339 81.6407 298.339 81.9124C298.339 82.1842 298.236 82.4168 298.03 82.6103C297.828 82.8038 297.585 82.9005 297.301 82.9005ZM304.516 97.7216C303.812 97.7216 303.206 97.631 302.7 97.4499C302.194 97.2728 301.772 97.0382 301.434 96.7459C301.101 96.4577 300.835 96.1489 300.637 95.8196L301.798 95.0044C301.93 95.1773 302.097 95.3749 302.299 95.5972C302.5 95.8237 302.776 96.0192 303.126 96.1839C303.48 96.3527 303.943 96.4371 304.516 96.4371C305.281 96.4371 305.913 96.2518 306.412 95.8813C306.91 95.5108 307.159 94.9303 307.159 94.1398V92.2131H307.035C306.928 92.386 306.776 92.6001 306.578 92.8553C306.385 93.1065 306.105 93.3308 305.738 93.5285C305.376 93.722 304.886 93.8187 304.269 93.8187C303.503 93.8187 302.815 93.6376 302.206 93.2753C301.601 92.913 301.121 92.386 300.767 91.6944C300.417 91.0027 300.242 90.1628 300.242 89.1748C300.242 88.2032 300.413 87.3571 300.755 86.6367C301.096 85.9121 301.572 85.3522 302.181 84.9569C302.791 84.5576 303.495 84.3579 304.293 84.3579C304.911 84.3579 305.401 84.4608 305.763 84.6667C306.129 84.8684 306.409 85.099 306.603 85.3583C306.801 85.6136 306.953 85.8236 307.06 85.9882H307.208V84.4814H308.616V94.2386C308.616 95.0538 308.431 95.7166 308.06 96.2271C307.694 96.7418 307.2 97.1185 306.578 97.3572C305.961 97.6001 305.273 97.7216 304.516 97.7216ZM304.466 92.5095C305.051 92.5095 305.545 92.3757 305.948 92.1081C306.352 91.8405 306.659 91.4556 306.868 90.9533C307.078 90.451 307.183 89.85 307.183 89.1501C307.183 88.4666 307.081 87.8635 306.875 87.3407C306.669 86.8178 306.364 86.4082 305.961 86.1117C305.557 85.8153 305.059 85.6671 304.466 85.6671C303.849 85.6671 303.334 85.8236 302.922 86.1364C302.515 86.4493 302.208 86.8693 302.002 87.3962C301.8 87.9232 301.7 88.5078 301.7 89.1501C301.7 89.8088 301.803 90.3913 302.008 90.8977C302.218 91.4 302.527 91.7952 302.935 92.0834C303.346 92.3675 303.857 92.5095 304.466 92.5095ZM312.741 88.2608V93.9669H311.284V81.3196H312.741V85.9635H312.865C313.087 85.4736 313.421 85.0846 313.865 84.7964C314.314 84.5041 314.911 84.3579 315.656 84.3579C316.303 84.3579 316.869 84.4876 317.354 84.747C317.84 85.0022 318.217 85.3954 318.485 85.9265C318.756 86.4535 318.892 87.1245 318.892 87.9397V93.9669H317.435V88.0385C317.435 87.2851 317.239 86.7025 316.848 86.2908C316.461 85.875 315.924 85.6671 315.236 85.6671C314.759 85.6671 314.33 85.768 313.952 85.9697C313.577 86.1714 313.281 86.4658 313.062 86.8528C312.848 87.2398 312.741 87.7091 312.741 88.2608ZM325.684 84.4814V85.7165H320.768V84.4814H325.684ZM322.201 82.2089H323.658V91.2497C323.658 91.6614 323.718 91.9702 323.837 92.176C323.961 92.3778 324.117 92.5136 324.306 92.5836C324.5 92.6495 324.704 92.6824 324.918 92.6824C325.078 92.6824 325.21 92.6742 325.313 92.6577C325.416 92.6371 325.498 92.6207 325.56 92.6083L325.856 93.9175C325.758 93.9546 325.62 93.9916 325.443 94.0287C325.266 94.0698 325.041 94.0904 324.77 94.0904C324.358 94.0904 323.954 94.0019 323.559 93.8249C323.168 93.6479 322.843 93.3782 322.583 93.0159C322.328 92.6536 322.201 92.1966 322.201 91.6449V82.2089Z" fill="#77838F"/>
</g>
<path fill-rule="evenodd" clip-rule="evenodd" d="M10.6619 509.545V393.611L73.7038 344.209L136.74 280.414L254.848 231.304L364.26 219.71L499.033 175.511V509.545H10.6619Z" fill="url(#paint0_linear_4_536)"/>
<path d="M10.6619 390.713L70.078 344.87L136.74 277.516L254.848 228.405L364.26 218.261L499.033 172.612" stroke="#1E739A" stroke-width="4.34752"/>
<circle cx="10.662" cy="390.713" r="8.69504" fill="#E9F1F5"/>
<circle cx="75.8747" cy="337.093" r="8.69504" fill="#E9F1F5"/>
<circle cx="135.291" cy="279.127" r="8.69504" fill="#E9F1F5"/>
<circle cx="255.572" cy="228.405" r="8.69504" fill="#E9F1F5"/>
<circle cx="367.158" cy="216.812" r="8.69504" fill="#1E739A"/>
<rect x="-54.5508" y="20.4492" width="610.102" height="545.614" rx="21.7376" stroke="url(#paint1_linear_4_536)" stroke-width="2.89835"/>
</g>
<defs>
<filter id="filter0_f_4_536" x="-75" y="0" width="651" height="586.512" filterUnits="userSpaceOnUse" color-interpolation-filters="sRGB">
<feFlood flood-opacity="0" result="BackgroundImageFix"/>
<feBlend mode="normal" in="SourceGraphic" in2="BackgroundImageFix" result="shape"/>
<feGaussianBlur stdDeviation="9.5" result="effect1_foregroundBlur_4_536"/>
</filter>
<linearGradient id="paint0_linear_4_536" x1="194.707" y1="234.202" x2="255.639" y2="495.326" gradientUnits="userSpaceOnUse">
<stop stop-color="#71D1E7"/>
<stop offset="1" stop-color="#1E739A" stop-opacity="0"/>
</linearGradient>
<linearGradient id="paint1_linear_4_536" x1="-56" y1="-79.9119" x2="1257.67" y2="418.482" gradientUnits="userSpaceOnUse">
<stop stop-color="#71D1E7"/>
<stop offset="1" stop-color="#1E739A"/>
</linearGradient>
<clipPath id="clip0_4_536">
<rect width="144.917" height="20.2884" fill="white" transform="translate(1.96692 76.9669)"/>
</clipPath>
<clipPath id="clip1_4_536">
<rect width="149.265" height="20.2884" fill="white" transform="translate(196.156 76.9669)"/>
</clipPath>
</defs>
</svg>
