<svg width="423" height="379" viewBox="0 0 423 379" fill="none" xmlns="http://www.w3.org/2000/svg">
<rect x="1" y="1" width="421" height="376.5" rx="15" fill="url(#paint0_linear_4_455)"/>
<g clip-path="url(#clip0_4_455)">
<circle cx="46" cy="47" r="6" fill="#1E739A"/>
<path d="M60.3068 43.2727H61.517L63.9375 47.3466H64.0398L66.4602 43.2727H67.6705L64.517 48.4034V52H63.4602V48.4034L60.3068 43.2727ZM70.6342 52.1364C70.0433 52.1364 69.5249 51.9957 69.0788 51.7145C68.6357 51.4332 68.2891 51.0398 68.0391 50.5341C67.7919 50.0284 67.6683 49.4375 67.6683 48.7614C67.6683 48.0795 67.7919 47.4844 68.0391 46.9759C68.2891 46.4673 68.6357 46.0724 69.0788 45.7912C69.5249 45.5099 70.0433 45.3693 70.6342 45.3693C71.2251 45.3693 71.7422 45.5099 72.1854 45.7912C72.6314 46.0724 72.978 46.4673 73.2251 46.9759C73.4751 47.4844 73.6001 48.0795 73.6001 48.7614C73.6001 49.4375 73.4751 50.0284 73.2251 50.5341C72.978 51.0398 72.6314 51.4332 72.1854 51.7145C71.7422 51.9957 71.2251 52.1364 70.6342 52.1364ZM70.6342 51.233C71.0831 51.233 71.4524 51.1179 71.7422 50.8878C72.032 50.6577 72.2464 50.3551 72.3857 49.9801C72.5249 49.6051 72.5945 49.1989 72.5945 48.7614C72.5945 48.3239 72.5249 47.9162 72.3857 47.5384C72.2464 47.1605 72.032 46.8551 71.7422 46.6222C71.4524 46.3892 71.0831 46.2727 70.6342 46.2727C70.1854 46.2727 69.8161 46.3892 69.5263 46.6222C69.2365 46.8551 69.022 47.1605 68.8828 47.5384C68.7436 47.9162 68.674 48.3239 68.674 48.7614C68.674 49.1989 68.7436 49.6051 68.8828 49.9801C69.022 50.3551 69.2365 50.6577 69.5263 50.8878C69.8161 51.1179 70.1854 51.233 70.6342 51.233ZM79.2603 49.3239V45.4545H80.266V52H79.2603V50.892H79.1921C79.0387 51.2244 78.8001 51.5071 78.4762 51.7401C78.1523 51.9702 77.7433 52.0852 77.2489 52.0852C76.8398 52.0852 76.4762 51.9957 76.158 51.8168C75.8398 51.6349 75.5898 51.3622 75.408 50.9986C75.2262 50.6321 75.1353 50.1705 75.1353 49.6136V45.4545H76.141V49.5455C76.141 50.0227 76.2745 50.4034 76.5415 50.6875C76.8114 50.9716 77.1552 51.1136 77.5728 51.1136C77.8228 51.1136 78.0771 51.0497 78.3356 50.9219C78.5969 50.794 78.8157 50.598 78.9918 50.3338C79.1708 50.0696 79.2603 49.733 79.2603 49.3239ZM82.108 52V45.4545H83.0795V46.4432H83.1477C83.267 46.1193 83.483 45.8565 83.7955 45.6548C84.108 45.4531 84.4602 45.3523 84.8523 45.3523C84.9261 45.3523 85.0185 45.3537 85.1293 45.3565C85.2401 45.3594 85.3239 45.3636 85.3807 45.3693V46.392C85.3466 46.3835 85.2685 46.3707 85.1463 46.3537C85.027 46.3338 84.9006 46.3239 84.767 46.3239C84.4489 46.3239 84.1648 46.3906 83.9148 46.5241C83.6676 46.6548 83.4716 46.8366 83.3267 47.0696C83.1847 47.2997 83.1136 47.5625 83.1136 47.858V52H82.108ZM91.6694 52L89.283 43.2727H90.3569L92.1808 50.3807H92.266L94.1239 43.2727H95.3171L97.1751 50.3807H97.2603L99.0842 43.2727H100.158L97.7717 52H96.6808L94.7546 45.0455H94.6864L92.7603 52H91.6694ZM103.473 52.1364C102.843 52.1364 102.299 51.9972 101.841 51.7188C101.387 51.4375 101.036 51.0455 100.789 50.5426C100.544 50.0369 100.422 49.4489 100.422 48.7784C100.422 48.108 100.544 47.517 100.789 47.0057C101.036 46.4915 101.38 46.0909 101.82 45.804C102.263 45.5142 102.78 45.3693 103.371 45.3693C103.712 45.3693 104.049 45.4261 104.381 45.5398C104.713 45.6534 105.016 45.8381 105.289 46.0938C105.561 46.3466 105.779 46.6818 105.941 47.0994C106.103 47.517 106.184 48.0312 106.184 48.642V49.0682H101.138V48.1989H105.161C105.161 47.8295 105.087 47.5 104.939 47.2102C104.794 46.9205 104.587 46.6918 104.317 46.5241C104.05 46.3565 103.735 46.2727 103.371 46.2727C102.971 46.2727 102.624 46.3722 102.331 46.571C102.042 46.767 101.819 47.0227 101.662 47.3381C101.506 47.6534 101.428 47.9915 101.428 48.3523V48.9318C101.428 49.4261 101.513 49.8452 101.684 50.1889C101.857 50.5298 102.097 50.7898 102.404 50.9688C102.711 51.1449 103.067 51.233 103.473 51.233C103.738 51.233 103.976 51.196 104.189 51.1222C104.405 51.0455 104.591 50.9318 104.748 50.7812C104.904 50.6278 105.025 50.4375 105.11 50.2102L106.081 50.483C105.979 50.8125 105.807 51.1023 105.566 51.3523C105.324 51.5994 105.026 51.7926 104.671 51.9318C104.316 52.0682 103.917 52.1364 103.473 52.1364ZM107.713 52V45.4545H108.719V52H107.713ZM108.225 44.3636C108.029 44.3636 107.86 44.2969 107.718 44.1634C107.578 44.0298 107.509 43.8693 107.509 43.6818C107.509 43.4943 107.578 43.3338 107.718 43.2003C107.86 43.0668 108.029 43 108.225 43C108.421 43 108.588 43.0668 108.728 43.2003C108.87 43.3338 108.941 43.4943 108.941 43.6818C108.941 43.8693 108.87 44.0298 108.728 44.1634C108.588 44.2969 108.421 44.3636 108.225 44.3636ZM113.203 54.5909C112.717 54.5909 112.3 54.5284 111.95 54.4034C111.601 54.2812 111.31 54.1193 111.077 53.9176C110.847 53.7188 110.663 53.5057 110.527 53.2784L111.328 52.7159C111.419 52.8352 111.534 52.9716 111.673 53.125C111.813 53.2812 112.003 53.4162 112.244 53.5298C112.489 53.6463 112.808 53.7045 113.203 53.7045C113.732 53.7045 114.168 53.5767 114.511 53.321C114.855 53.0653 115.027 52.6648 115.027 52.1193V50.7898H114.942C114.868 50.9091 114.763 51.0568 114.626 51.233C114.493 51.4062 114.3 51.5611 114.047 51.6974C113.797 51.831 113.459 51.8977 113.033 51.8977C112.504 51.8977 112.03 51.7727 111.609 51.5227C111.192 51.2727 110.861 50.9091 110.616 50.4318C110.375 49.9545 110.254 49.375 110.254 48.6932C110.254 48.0227 110.372 47.4389 110.608 46.9418C110.844 46.4418 111.172 46.0554 111.592 45.7827C112.013 45.5071 112.499 45.3693 113.05 45.3693C113.476 45.3693 113.814 45.4403 114.064 45.5824C114.317 45.7216 114.51 45.8807 114.643 46.0597C114.78 46.2358 114.885 46.3807 114.959 46.4943H115.061V45.4545H116.033V52.1875C116.033 52.75 115.905 53.2074 115.649 53.5597C115.396 53.9148 115.055 54.1747 114.626 54.3395C114.2 54.5071 113.726 54.5909 113.203 54.5909ZM113.169 50.9943C113.572 50.9943 113.913 50.902 114.192 50.7173C114.47 50.5327 114.682 50.267 114.827 49.9205C114.972 49.5739 115.044 49.1591 115.044 48.6761C115.044 48.2045 114.973 47.7884 114.831 47.4276C114.689 47.0668 114.479 46.7841 114.2 46.5795C113.922 46.375 113.578 46.2727 113.169 46.2727C112.743 46.2727 112.388 46.3807 112.104 46.5966C111.822 46.8125 111.611 47.1023 111.469 47.4659C111.33 47.8295 111.26 48.233 111.26 48.6761C111.26 49.1307 111.331 49.5327 111.473 49.8821C111.618 50.2287 111.831 50.5014 112.112 50.7003C112.396 50.8963 112.749 50.9943 113.169 50.9943ZM118.879 48.0625V52H117.874V43.2727H118.879V46.4773H118.964C119.118 46.1392 119.348 45.8707 119.655 45.6719C119.964 45.4702 120.376 45.3693 120.891 45.3693C121.337 45.3693 121.727 45.4588 122.062 45.6378C122.398 45.8139 122.658 46.0852 122.842 46.4517C123.03 46.8153 123.124 47.2784 123.124 47.8409V52H122.118V47.9091C122.118 47.3892 121.983 46.9872 121.713 46.7031C121.446 46.4162 121.075 46.2727 120.601 46.2727C120.271 46.2727 119.976 46.3423 119.714 46.4815C119.456 46.6207 119.251 46.8239 119.101 47.0909C118.953 47.358 118.879 47.6818 118.879 48.0625ZM127.81 45.4545V46.3068H124.418V45.4545H127.81ZM125.407 43.8864H126.412V50.125C126.412 50.4091 126.453 50.6222 126.536 50.7642C126.621 50.9034 126.729 50.9972 126.86 51.0455C126.993 51.0909 127.134 51.1136 127.282 51.1136C127.392 51.1136 127.483 51.108 127.554 51.0966C127.625 51.0824 127.682 51.071 127.725 51.0625L127.929 51.9659C127.861 51.9915 127.766 52.017 127.644 52.0426C127.522 52.071 127.367 52.0852 127.179 52.0852C126.895 52.0852 126.617 52.0241 126.344 51.902C126.074 51.7798 125.85 51.5938 125.671 51.3438C125.495 51.0938 125.407 50.7784 125.407 50.3977V43.8864Z" fill="#77838F"/>
</g>
<g clip-path="url(#clip1_4_455)">
<circle cx="180" cy="47" r="6" fill="#A3C6D6"/>
<path d="M196.114 43.2727V52H195.057V43.2727H196.114ZM200.568 52.1364C200.022 52.1364 199.541 51.9986 199.123 51.723C198.706 51.4446 198.379 51.0526 198.143 50.5469C197.907 50.0384 197.789 49.4375 197.789 48.7443C197.789 48.0568 197.907 47.4602 198.143 46.9545C198.379 46.4489 198.707 46.0582 199.127 45.7827C199.548 45.5071 200.034 45.3693 200.585 45.3693C201.011 45.3693 201.348 45.4403 201.595 45.5824C201.845 45.7216 202.035 45.8807 202.166 46.0597C202.299 46.2358 202.403 46.3807 202.477 46.4943H202.562V43.2727H203.568V52H202.596V50.9943H202.477C202.403 51.1136 202.298 51.2642 202.162 51.446C202.025 51.625 201.831 51.7855 201.578 51.9276C201.325 52.0668 200.988 52.1364 200.568 52.1364ZM200.704 51.233C201.108 51.233 201.449 51.1278 201.727 50.9176C202.005 50.7045 202.217 50.4105 202.362 50.0355C202.507 49.6577 202.579 49.2216 202.579 48.7273C202.579 48.2386 202.508 47.8111 202.366 47.4446C202.224 47.0753 202.014 46.7884 201.735 46.5838C201.457 46.3764 201.113 46.2727 200.704 46.2727C200.278 46.2727 199.923 46.3821 199.639 46.6009C199.358 46.8168 199.146 47.1108 199.004 47.483C198.865 47.8523 198.795 48.267 198.795 48.7273C198.795 49.1932 198.866 49.6165 199.008 49.9972C199.153 50.375 199.366 50.6761 199.647 50.9006C199.931 51.1222 200.284 51.233 200.704 51.233ZM208.294 52.1364C207.663 52.1364 207.119 51.9972 206.662 51.7188C206.207 51.4375 205.856 51.0455 205.609 50.5426C205.365 50.0369 205.243 49.4489 205.243 48.7784C205.243 48.108 205.365 47.517 205.609 47.0057C205.856 46.4915 206.2 46.0909 206.64 45.804C207.083 45.5142 207.6 45.3693 208.191 45.3693C208.532 45.3693 208.869 45.4261 209.201 45.5398C209.534 45.6534 209.836 45.8381 210.109 46.0938C210.382 46.3466 210.599 46.6818 210.761 47.0994C210.923 47.517 211.004 48.0312 211.004 48.642V49.0682H205.958V48.1989H209.981C209.981 47.8295 209.907 47.5 209.76 47.2102C209.615 46.9205 209.407 46.6918 209.137 46.5241C208.87 46.3565 208.555 46.2727 208.191 46.2727C207.791 46.2727 207.444 46.3722 207.152 46.571C206.862 46.767 206.639 47.0227 206.483 47.3381C206.326 47.6534 206.248 47.9915 206.248 48.3523V48.9318C206.248 49.4261 206.333 49.8452 206.504 50.1889C206.677 50.5298 206.917 50.7898 207.224 50.9688C207.531 51.1449 207.887 51.233 208.294 51.233C208.558 51.233 208.797 51.196 209.01 51.1222C209.225 51.0455 209.412 50.9318 209.568 50.7812C209.724 50.6278 209.845 50.4375 209.93 50.2102L210.902 50.483C210.799 50.8125 210.627 51.1023 210.386 51.3523C210.145 51.5994 209.846 51.7926 209.491 51.9318C209.136 52.0682 208.737 52.1364 208.294 52.1364ZM214.46 52.1534C214.045 52.1534 213.669 52.0753 213.331 51.919C212.993 51.7599 212.724 51.5312 212.525 51.233C212.326 50.9318 212.227 50.5682 212.227 50.142C212.227 49.767 212.301 49.4631 212.449 49.2301C212.596 48.9943 212.794 48.8097 213.041 48.6761C213.288 48.5426 213.561 48.4432 213.859 48.3778C214.16 48.3097 214.463 48.2557 214.767 48.2159C215.164 48.1648 215.487 48.1264 215.734 48.1009C215.984 48.0724 216.166 48.0256 216.279 47.9602C216.396 47.8949 216.454 47.7812 216.454 47.6193V47.5852C216.454 47.1648 216.339 46.8381 216.109 46.6051C215.882 46.3722 215.537 46.2557 215.074 46.2557C214.593 46.2557 214.217 46.3608 213.944 46.571C213.672 46.7812 213.48 47.0057 213.369 47.2443L212.414 46.9034C212.585 46.5057 212.812 46.196 213.096 45.9744C213.383 45.75 213.696 45.5937 214.034 45.5057C214.375 45.4148 214.71 45.3693 215.039 45.3693C215.25 45.3693 215.491 45.3949 215.764 45.446C216.039 45.4943 216.305 45.5952 216.561 45.7486C216.819 45.902 217.034 46.1335 217.204 46.4432C217.375 46.7528 217.46 47.1676 217.46 47.6875V52H216.454V51.1136H216.403C216.335 51.2557 216.221 51.4077 216.062 51.5696C215.903 51.7315 215.691 51.8693 215.427 51.983C215.163 52.0966 214.841 52.1534 214.46 52.1534ZM214.613 51.25C215.011 51.25 215.346 51.1719 215.619 51.0156C215.895 50.8594 216.102 50.6577 216.241 50.4105C216.383 50.1634 216.454 49.9034 216.454 49.6307V48.7102C216.412 48.7614 216.318 48.8082 216.173 48.8509C216.031 48.8906 215.866 48.9261 215.679 48.9574C215.494 48.9858 215.314 49.0114 215.137 49.0341C214.964 49.054 214.824 49.071 214.716 49.0852C214.454 49.1193 214.21 49.1747 213.983 49.2514C213.758 49.3253 213.576 49.4375 213.437 49.5881C213.301 49.7358 213.233 49.9375 213.233 50.1932C213.233 50.5426 213.362 50.8068 213.62 50.9858C213.882 51.1619 214.213 51.25 214.613 51.25ZM220.301 43.2727V52H219.295V43.2727H220.301ZM227.24 52L224.853 43.2727H225.927L227.751 50.3807H227.836L229.694 43.2727H230.887L232.745 50.3807H232.831L234.654 43.2727H235.728L233.342 52H232.251L230.325 45.0455H230.257L228.331 52H227.24ZM239.044 52.1364C238.413 52.1364 237.869 51.9972 237.412 51.7188C236.957 51.4375 236.606 51.0455 236.359 50.5426C236.115 50.0369 235.993 49.4489 235.993 48.7784C235.993 48.108 236.115 47.517 236.359 47.0057C236.606 46.4915 236.95 46.0909 237.39 45.804C237.833 45.5142 238.35 45.3693 238.941 45.3693C239.282 45.3693 239.619 45.4261 239.951 45.5398C240.284 45.6534 240.586 45.8381 240.859 46.0938C241.132 46.3466 241.349 46.6818 241.511 47.0994C241.673 47.517 241.754 48.0312 241.754 48.642V49.0682H236.708V48.1989H240.731C240.731 47.8295 240.657 47.5 240.51 47.2102C240.365 46.9205 240.157 46.6918 239.887 46.5241C239.62 46.3565 239.305 46.2727 238.941 46.2727C238.541 46.2727 238.194 46.3722 237.902 46.571C237.612 46.767 237.389 47.0227 237.233 47.3381C237.076 47.6534 236.998 47.9915 236.998 48.3523V48.9318C236.998 49.4261 237.083 49.8452 237.254 50.1889C237.427 50.5298 237.667 50.7898 237.974 50.9688C238.281 51.1449 238.637 51.233 239.044 51.233C239.308 51.233 239.547 51.196 239.76 51.1222C239.975 51.0455 240.162 50.9318 240.318 50.7812C240.474 50.6278 240.595 50.4375 240.68 50.2102L241.652 50.483C241.549 50.8125 241.377 51.1023 241.136 51.3523C240.895 51.5994 240.596 51.7926 240.241 51.9318C239.886 52.0682 239.487 52.1364 239.044 52.1364ZM243.284 52V45.4545H244.289V52H243.284ZM243.795 44.3636C243.599 44.3636 243.43 44.2969 243.288 44.1634C243.149 44.0298 243.079 43.8693 243.079 43.6818C243.079 43.4943 243.149 43.3338 243.288 43.2003C243.43 43.0668 243.599 43 243.795 43C243.991 43 244.159 43.0668 244.298 43.2003C244.44 43.3338 244.511 43.4943 244.511 43.6818C244.511 43.8693 244.44 44.0298 244.298 44.1634C244.159 44.2969 243.991 44.3636 243.795 44.3636ZM248.773 54.5909C248.288 54.5909 247.87 54.5284 247.521 54.4034C247.171 54.2812 246.88 54.1193 246.647 53.9176C246.417 53.7188 246.234 53.5057 246.097 53.2784L246.898 52.7159C246.989 52.8352 247.104 52.9716 247.244 53.125C247.383 53.2812 247.573 53.4162 247.815 53.5298C248.059 53.6463 248.379 53.7045 248.773 53.7045C249.302 53.7045 249.738 53.5767 250.082 53.321C250.425 53.0653 250.597 52.6648 250.597 52.1193V50.7898H250.512C250.438 50.9091 250.333 51.0568 250.197 51.233C250.063 51.4062 249.87 51.5611 249.617 51.6974C249.367 51.831 249.029 51.8977 248.603 51.8977C248.075 51.8977 247.6 51.7727 247.18 51.5227C246.762 51.2727 246.431 50.9091 246.187 50.4318C245.945 49.9545 245.825 49.375 245.825 48.6932C245.825 48.0227 245.942 47.4389 246.178 46.9418C246.414 46.4418 246.742 46.0554 247.163 45.7827C247.583 45.5071 248.069 45.3693 248.62 45.3693C249.046 45.3693 249.384 45.4403 249.634 45.5824C249.887 45.7216 250.08 45.8807 250.214 46.0597C250.35 46.2358 250.455 46.3807 250.529 46.4943H250.631V45.4545H251.603V52.1875C251.603 52.75 251.475 53.2074 251.219 53.5597C250.967 53.9148 250.626 54.1747 250.197 54.3395C249.771 54.5071 249.296 54.5909 248.773 54.5909ZM248.739 50.9943C249.143 50.9943 249.484 50.902 249.762 50.7173C250.04 50.5327 250.252 50.267 250.397 49.9205C250.542 49.5739 250.614 49.1591 250.614 48.6761C250.614 48.2045 250.543 47.7884 250.401 47.4276C250.259 47.0668 250.049 46.7841 249.771 46.5795C249.492 46.375 249.148 46.2727 248.739 46.2727C248.313 46.2727 247.958 46.3807 247.674 46.5966C247.393 46.8125 247.181 47.1023 247.039 47.4659C246.9 47.8295 246.83 48.233 246.83 48.6761C246.83 49.1307 246.901 49.5327 247.043 49.8821C247.188 50.2287 247.401 50.5014 247.683 50.7003C247.967 50.8963 248.319 50.9943 248.739 50.9943ZM254.45 48.0625V52H253.444V43.2727H254.45V46.4773H254.535C254.688 46.1392 254.918 45.8707 255.225 45.6719C255.535 45.4702 255.947 45.3693 256.461 45.3693C256.907 45.3693 257.298 45.4588 257.633 45.6378C257.968 45.8139 258.228 46.0852 258.413 46.4517C258.6 46.8153 258.694 47.2784 258.694 47.8409V52H257.688V47.9091C257.688 47.3892 257.553 46.9872 257.283 46.7031C257.016 46.4162 256.646 46.2727 256.171 46.2727C255.842 46.2727 255.546 46.3423 255.285 46.4815C255.026 46.6207 254.822 46.8239 254.671 47.0909C254.523 47.358 254.45 47.6818 254.45 48.0625ZM263.38 45.4545V46.3068H259.988V45.4545H263.38ZM260.977 43.8864H261.983V50.125C261.983 50.4091 262.024 50.6222 262.106 50.7642C262.191 50.9034 262.299 50.9972 262.43 51.0455C262.564 51.0909 262.704 51.1136 262.852 51.1136C262.963 51.1136 263.054 51.108 263.125 51.0966C263.196 51.0824 263.252 51.071 263.295 51.0625L263.5 51.9659C263.431 51.9915 263.336 52.017 263.214 52.0426C263.092 52.071 262.937 52.0852 262.75 52.0852C262.466 52.0852 262.187 52.0241 261.914 51.902C261.645 51.7798 261.42 51.5938 261.241 51.3438C261.065 51.0938 260.977 50.7784 260.977 50.3977V43.8864Z" fill="#77838F"/>
</g>
<path fill-rule="evenodd" clip-rule="evenodd" d="M46 338.5V258.5L89.502 224.41L133 180.389L214.5 146.5L290 138.5L383 108V338.5H46Z" fill="url(#paint1_linear_4_455)"/>
<path d="M46 256.5L87 224.867L133 178.389L214.5 144.5L290 137.5L383 106" stroke="#1E739A" stroke-width="3"/>
<circle cx="46" cy="256.5" r="6" fill="#E9F1F5"/>
<circle cx="91" cy="219.5" r="6" fill="#E9F1F5"/>
<circle cx="132" cy="179.5" r="6" fill="#E9F1F5"/>
<circle cx="215" cy="144.5" r="6" fill="#E9F1F5"/>
<circle cx="292" cy="136.5" r="6" fill="#1E739A"/>
<rect x="1" y="1" width="421" height="376.5" rx="15" stroke="url(#paint2_linear_4_455)" stroke-width="2"/>
<defs>
<linearGradient id="paint0_linear_4_455" x1="211.5" y1="0" x2="211.5" y2="378.5" gradientUnits="userSpaceOnUse">
<stop stop-color="white"/>
<stop offset="1" stop-color="white" stop-opacity="0"/>
</linearGradient>
<linearGradient id="paint1_linear_4_455" x1="173" y1="148.5" x2="215.047" y2="328.689" gradientUnits="userSpaceOnUse">
<stop stop-color="#71D1E7"/>
<stop offset="1" stop-color="#1E739A" stop-opacity="0"/>
</linearGradient>
<linearGradient id="paint2_linear_4_455" x1="-7.3516e-06" y1="-68.2541" x2="906.497" y2="275.662" gradientUnits="userSpaceOnUse">
<stop stop-color="#71D1E7"/>
<stop offset="1" stop-color="#1E739A"/>
</linearGradient>
<clipPath id="clip0_4_455">
<rect width="100" height="14" fill="white" transform="translate(40 40)"/>
</clipPath>
<clipPath id="clip1_4_455">
<rect width="103" height="14" fill="white" transform="translate(174 40)"/>
</clipPath>
</defs>
</svg>
