<svg width="13" height="13" viewBox="0 0 13 13" fill="none" xmlns="http://www.w3.org/2000/svg">
<path fill-rule="evenodd" clip-rule="evenodd" d="M12.7071 12.2071C12.3166 12.5976 11.6834 12.5976 11.2929 12.2071L6.29289 7.20711C5.90237 6.81658 5.90237 6.18342 6.29289 5.79289L11.2929 0.792894C11.6834 0.402369 12.3166 0.402369 12.7071 0.792894C13.0976 1.18342 13.0976 1.81658 12.7071 2.20711L8.41421 6.5L12.7071 10.7929C13.0976 11.1834 13.0976 11.8166 12.7071 12.2071ZM6.70711 12.2071C6.31658 12.5976 5.68342 12.5976 5.29289 12.2071L0.292894 7.20711C-0.0976312 6.81658 -0.0976312 6.18342 0.292894 5.79289L5.29289 0.792894C5.68342 0.402369 6.31658 0.402369 6.70711 0.792894C7.09763 1.18342 7.09763 1.81658 6.70711 2.20711L2.41421 6.5L6.70711 10.7929C7.09763 11.1834 7.09763 11.8166 6.70711 12.2071Z" fill="#3B4556"/>
</svg>
