<svg width="115" height="113" viewBox="0 0 115 113" fill="none" xmlns="http://www.w3.org/2000/svg">
<rect x="0.610596" width="113.779" height="113" rx="56.5" fill="#E9F1F5"/>
<path d="M42.4173 61.5837C42.2413 62.3801 41.4516 62.8842 40.6552 62.7077C39.8588 62.5318 39.3547 61.7421 39.5312 60.9456C40.4601 56.785 42.795 53.1548 46.0101 50.5814C49.1679 48.0535 53.168 46.5408 57.5124 46.5408H74.435C79.5224 46.5408 84.1312 48.6051 87.4664 51.9403C90.8011 55.2751 92.8659 59.8859 92.8659 64.9733C92.8659 67.5168 92.3453 69.9494 91.4051 72.1638L91.3694 72.2425C90.5973 74.0361 89.5494 75.6842 88.2806 77.1286L92.023 80.8711C92.6021 81.4502 92.6021 82.3894 92.023 82.969C91.7333 83.2588 91.3534 83.4037 90.9741 83.4037L57.5116 83.4047C53.1673 83.4047 49.1671 81.8921 46.0094 79.3652C42.7942 76.7917 40.4593 73.1626 39.5305 69.0019C39.3545 68.2055 39.858 67.4158 40.6545 67.2399C41.4509 67.0639 42.2406 67.5674 42.4165 68.3638C43.1954 71.8528 45.1556 74.8997 47.8528 77.0587C50.493 79.1711 53.8515 80.4358 57.5117 80.4358H87.3919L85.1455 78.1837C84.5794 77.5948 84.597 76.6572 85.1859 76.0915C86.6499 74.6761 87.8365 72.9731 88.6504 71.0796L88.6805 71.0041C89.4639 69.1576 89.8976 67.1188 89.8976 64.9737C89.8976 60.7029 88.1661 56.8351 85.369 54.0381C82.572 51.2411 78.7052 49.5095 74.4355 49.5095H57.5128C53.8526 49.5095 50.4942 50.7737 47.8539 52.8871C45.1568 55.0461 43.1965 58.0931 42.4177 61.5831L42.4173 61.5837ZM75.4691 43.9973C75.645 44.7938 75.1415 45.5835 74.3451 45.7594C73.5486 45.9354 72.7589 45.4318 72.583 44.6354C71.8047 41.1454 69.8449 38.0995 67.1468 35.9405C64.5086 33.8287 61.1491 32.5634 57.4878 32.5634H40.5652C36.2917 32.5634 32.4251 34.2929 29.6322 37.0869C26.8352 39.889 25.1036 43.7558 25.1036 48.0255C25.1036 50.1767 25.5373 52.2182 26.3208 54.0646C27.1358 55.9856 28.3332 57.7124 29.8154 59.1449C30.4043 59.711 30.4219 60.6488 29.8557 61.2371L27.6093 63.4892H57.4883C61.1458 63.4892 64.5023 62.225 67.1415 60.1116L67.2171 60.0557C69.878 57.9003 71.8119 54.8761 72.5829 51.4162C72.7589 50.6198 73.5486 50.1157 74.345 50.2922C75.1414 50.4681 75.6454 51.2578 75.469 52.0543C74.5489 56.1787 72.2456 59.7825 69.0723 62.3517L68.9952 62.4185C65.838 64.9464 61.8363 66.459 57.4878 66.459H24.0254C23.646 66.458 23.2657 66.3136 22.9764 66.0233C22.3973 65.4442 22.3973 64.505 22.9764 63.9254L26.7189 60.184C25.4309 58.7164 24.3695 57.0392 23.5953 55.213C22.6551 52.9976 22.1345 50.5665 22.1345 48.0261C22.1345 42.9387 24.1988 38.33 27.534 34.9947C30.8745 31.6605 35.4821 29.5952 40.5644 29.5952H57.487C61.8314 29.5952 65.8321 31.1078 68.9893 33.6347C72.2049 36.2082 74.5403 39.8384 75.4682 43.998L75.4691 43.9973Z" fill="#1E739A"/>
</svg>
