<svg width="114" height="112" viewBox="0 0 114 112" fill="none" xmlns="http://www.w3.org/2000/svg">
<rect x="0.318359" width="113.363" height="112" rx="56" fill="#E9F1F5"/>
<path fill-rule="evenodd" clip-rule="evenodd" d="M57.0339 61.6406C56.8196 61.6406 56.6068 61.5769 56.4225 61.4495C55.3428 60.7024 29.9898 42.9892 30.9834 28.9246C30.9804 21.8311 37.0647 16 44.5441 16C50.1481 16 54.9683 19.2728 57.0332 23.9298C59.0991 19.273 63.9192 16 69.5224 16C76.9884 16 83.0645 21.8116 83.0862 28.9628C84.0303 43.0218 58.7232 60.7031 57.6451 61.4512C57.4601 61.5778 57.2473 61.6415 57.0337 61.6415L57.0339 61.6406ZM44.544 18.1474C38.25 18.1474 33.1284 23.0156 33.1284 28.9994C32.2975 40.7873 53.162 56.4469 57.033 59.2474C60.9054 56.4488 81.77 40.7931 80.9413 29.0742C80.9391 29.0488 80.9383 29.024 80.9383 28.9986C80.9383 23.0147 75.8169 18.1466 69.5228 18.1466C63.2286 18.1466 58.1072 23.0147 58.1072 28.9986C58.1072 29.592 57.6269 30.0731 57.0327 30.0731C56.4393 30.0731 55.9582 29.5928 55.9582 28.9986C55.959 23.0147 50.8376 18.1466 44.5434 18.1466L44.544 18.1474ZM31.9747 92.9024L33.2565 77.9965C30.4472 75.3665 24.4623 69.7606 22.0937 67.5351C22.0198 67.4628 21.9416 67.3889 21.8617 67.3135C21.5541 67.0231 21.2214 66.7091 21.0162 66.3677C20.4703 65.6802 20.2606 64.3116 20.088 63.1849C20.025 62.7731 19.9668 62.3936 19.899 62.0915L16.3504 41.2446C16.1533 40.5058 16.9071 39.9566 17.4863 39.8456C19.2307 39.3968 20.9391 40.1094 22.329 41.1262C23.4319 41.9446 24.2058 43.3564 24.7197 44.7888C25.3004 44.6007 26.1802 44.5822 27.4899 45.0727C29.4612 45.8131 30.4384 48.8589 30.912 51.2837C30.9779 51.6223 31.0588 51.955 31.163 52.2832L31.9258 54.6936C32.5479 56.6586 33.8419 58.3274 35.5823 59.4183C35.2596 58.6306 34.9962 57.8909 34.7469 56.9474C34.1639 54.7422 33.6139 52.6614 34.9702 51.6079C36.0851 50.7402 37.8663 51.2647 39.0486 52.1167C40.2581 52.9893 40.7028 54.0975 41.3184 55.6316L41.3205 55.6369L41.3294 55.659C41.6284 56.4044 41.9677 57.25 42.4722 58.2969C43.0341 59.4612 46.0423 64.7163 46.8135 66.0204C48.9319 67.3361 50.5334 69.3492 51.3385 71.7184C52.0915 73.931 52.135 76.2021 51.4898 78.3639L50.5922 81.3753C50.3532 82.177 50.231 83.0095 50.231 83.8488V91.9681C50.2303 92.5631 49.7494 93.0433 49.1559 93.0433C48.5625 93.0433 48.0814 92.563 48.0814 91.9688V83.8495C48.0814 82.8012 48.2335 81.7619 48.5325 80.7608L49.4302 77.7494C49.9464 76.0178 49.912 74.1985 49.3305 72.4894C48.6396 70.4605 47.3035 68.8096 45.5362 67.7584C45.5037 67.7415 45.4721 67.7228 45.4413 67.7025L34.7087 61.4012C32.4002 60.0458 30.6836 57.8946 29.8772 55.3424L29.1144 52.932C28.9892 52.5386 28.8881 52.134 28.8027 51.6942C28.2474 48.8522 27.3423 47.3123 26.7354 47.0846C25.9562 46.7916 25.5733 46.7954 25.4451 46.8163C25.4048 46.8593 25.3612 46.8984 25.315 46.9336C25.438 47.5384 25.5127 48.0841 25.5458 48.5135C26.5266 52.3117 27.461 56.1196 28.1983 59.977C28.259 60.297 28.0492 60.6064 27.7285 60.6672C27.4392 60.7219 27.159 60.5555 27.0631 60.2865C25.7398 56.5888 24.6122 52.8339 23.5286 49.0635C23.1424 46.2457 22.0364 42.0868 18.7381 41.9582L22.2324 61.686C22.2979 61.942 22.3496 62.3057 22.4068 62.708C22.5504 63.7182 22.7287 64.9717 23.2469 65.3747C25.9953 67.9612 32.4475 74.0349 35.2581 76.6853C35.5293 76.9363 35.6514 77.2967 35.62 77.6384L34.1146 93.0987C33.9573 94.4691 31.8824 94.326 31.9747 92.9024ZM43.0647 63.8155L38.7239 61.267C38.5354 60.8289 38.3625 60.4363 38.2034 60.075L38.1953 60.0566C37.5632 58.614 37.1798 57.739 36.8247 56.3975C36.5729 55.4451 36.1046 53.6723 36.2627 53.3209C36.4298 53.2564 37.1304 53.3808 37.7935 53.8604C38.4724 54.3489 38.7384 54.9649 39.3281 56.4365L39.3306 56.4427C39.6284 57.1857 39.9987 58.1097 40.5397 59.2313C40.8963 59.9703 42.0165 61.9739 43.0647 63.8155ZM78.3877 79.5856L79.8931 95.0459L79.8929 95.0465C80.0517 96.4649 82.143 96.2191 82.0336 94.8487L80.7517 79.9415C81.5479 79.1955 82.5545 78.2531 83.6532 77.2243L83.658 77.2198C86.71 74.3622 90.4714 70.8403 92.4113 69.0123C93.4507 68.1551 93.7121 66.4789 93.9327 65.0644L93.9327 65.0641C93.9898 64.6982 94.0441 64.3498 94.1085 64.0377L97.6572 43.1907C97.7516 42.7569 97.565 42.2931 97.1574 42.0608C95.8969 41.3617 94.4067 41.6487 93.1996 42.1784C91.2621 42.839 90.0182 44.7767 89.2908 46.7382C88.7105 46.549 87.8296 46.5295 86.5157 47.0205C84.5458 47.7594 83.5679 50.8053 83.0952 53.233C83.0285 53.5701 82.9468 53.9043 82.8441 54.2303L82.0814 56.6407C81.4589 58.6073 80.164 60.2762 78.4223 61.3669C78.7449 60.5787 79.0077 59.8385 79.257 58.8952C79.8407 56.6915 80.3922 54.6092 79.0337 53.5549C77.9187 52.6895 76.1384 53.2132 74.956 54.0637C73.7461 54.9372 73.301 56.0466 72.6845 57.5829L72.6841 57.5839L72.6751 57.6063C72.3761 58.3516 72.0369 59.1971 71.5324 60.2439C70.9632 61.4247 67.9559 66.675 67.1882 67.9698C65.0734 69.2876 63.4717 71.3024 62.6424 73.744C61.9148 75.8786 61.8721 78.1498 62.5172 80.31L63.4149 83.3237C63.6547 84.1248 63.7761 84.958 63.7761 85.7972V93.9158C63.7761 94.51 64.2571 94.9903 64.8506 94.9903L64.8503 94.9904C65.4438 94.9904 65.9248 94.5101 65.9241 93.9167V85.7981C65.9241 84.7506 65.7719 83.7105 65.473 82.711L64.5753 79.6973C64.059 77.9663 64.0935 76.1471 64.7012 74.3578C65.3689 72.3957 66.7194 70.7373 68.5032 69.6857C68.5107 69.6814 68.518 69.6771 68.5254 69.6727L79.2975 63.3476C81.6062 61.9935 83.3213 59.8409 84.129 57.2888L84.8926 54.8761C85.0192 54.4707 85.1219 54.0593 85.2028 53.6427C85.7581 50.7992 86.6633 49.2586 87.2687 49.0323C88.0502 48.7401 88.4286 48.7431 88.5597 48.7641C88.5983 48.8049 88.6397 48.8422 88.6836 48.876C88.5636 49.4658 88.4918 50.0082 88.4618 50.4597C87.4818 54.2579 86.5466 58.0659 85.8093 61.9232C85.67 62.6215 86.7077 62.9063 86.9445 62.2326C88.2715 58.4757 89.4607 54.6738 90.5112 50.8359C90.8864 48.0572 92.0442 44.0268 95.2714 43.9034C95.0317 45.2604 94.6006 47.6884 94.109 50.458L94.1033 50.4901L94.1008 50.5041C92.8987 57.2755 91.3394 66.0589 91.3243 66.237C91.2493 66.8837 90.7526 67.3505 90.2962 67.7596C88.2033 69.7251 83.3209 74.3253 80.2708 77.1992L78.7391 78.6423C78.4919 78.8776 78.3517 79.22 78.3877 79.5856ZM70.9368 65.765L75.282 63.2144C75.4291 62.8728 75.5663 62.5592 75.6946 62.266C75.7303 62.1844 75.7654 62.1043 75.7997 62.0256C76.4389 60.572 76.8233 59.6939 77.1792 58.3465C77.4317 57.3927 77.9008 55.6191 77.6775 55.2107C77.5314 55.168 76.872 55.3313 76.2111 55.8064C75.5338 56.2949 75.267 56.9108 74.6773 58.3825L74.6744 58.3897C74.3767 59.1325 74.0064 60.0563 73.4657 61.1773C73.1103 61.9153 71.9861 63.9231 70.9368 65.765Z" fill="#1E739A"/>
</svg>
