<svg width="113" height="112" viewBox="0 0 113 112" fill="none" xmlns="http://www.w3.org/2000/svg">
<rect x="0.435303" width="112.129" height="112" rx="56" fill="#E9F1F5"/>
<path d="M56.4993 70.2442C58.7105 70.2442 60.792 71.1547 62.3531 72.5855C63.9142 74.1466 64.8246 76.2276 64.8246 78.5689C64.8246 80.9103 63.7839 83.2518 61.9629 84.8129C64.5648 86.2438 66.2555 89.1056 66.2555 92.0975V94.5691C66.2555 95.3494 65.6049 96 64.8246 96H48.1748C47.3946 96 46.6137 95.3494 46.6137 94.5691V92.0975C46.6137 89.8864 47.6545 87.8049 49.0853 86.2438C49.6057 85.7234 50.386 85.203 51.0366 84.8129C49.2155 83.2518 48.1748 80.9104 48.1748 78.5689C48.1748 73.8861 51.9471 70.2434 56.5003 70.2434L56.4993 70.2442ZM86.6782 24.7162C89.0195 24.7162 91.101 25.6267 92.5319 27.1877C94.093 28.6186 95.0035 30.7001 95.0035 33.0415C95.0035 35.5131 93.9628 37.7244 92.1417 39.2855C94.7437 40.7164 96.5646 43.5781 96.5646 46.6998V49.0411C96.5646 49.8214 95.7843 50.6022 95.0035 50.6022H78.3537C77.5734 50.6022 76.9228 49.8219 76.9228 49.0411V46.6998C76.9228 44.3584 77.8333 42.2769 79.2642 40.7164C79.9148 40.196 80.5648 39.6756 81.2155 39.2855C79.3944 37.7244 78.3537 35.5132 78.3537 33.0415C78.3537 28.489 82.1259 24.716 86.6792 24.716L86.6782 24.7162ZM90.4504 29.2687C89.5399 28.3582 88.109 27.7076 86.6782 27.7076C83.8164 27.7076 81.3448 30.1792 81.3448 33.0409C81.3448 34.4718 81.9954 35.7725 82.9059 36.8132C83.9467 37.7237 85.2473 38.3743 86.6782 38.3743C89.6701 38.3743 92.0115 36.0329 92.0115 33.0409C92.0115 31.61 91.3609 30.3094 90.4504 29.2687ZM93.4424 47.4796V46.6993C93.4424 43.7073 91.101 41.366 88.2393 41.366H85.2473C83.6862 41.366 82.3855 41.8863 81.475 42.9271C80.4343 43.8376 79.9139 45.1382 79.9139 46.6993V47.4796H93.4424ZM26.3209 24.7156C28.532 24.7156 30.6135 25.6261 32.1746 27.1872C33.6055 28.6181 34.516 30.6996 34.516 33.0409C34.516 35.5125 33.4753 37.7238 31.6542 39.2849C34.3858 40.7158 36.0771 43.5776 36.0771 46.6992V49.0406C36.0771 49.8208 35.4265 50.6016 34.516 50.6016H17.9964C17.0859 50.6016 16.4353 49.8214 16.4353 49.0406V46.6992C16.4353 44.3578 17.3458 42.2763 18.9069 40.7158C19.4272 40.1954 20.0779 39.675 20.8582 39.2849C19.0371 37.7238 17.9964 35.5126 17.9964 33.0409C17.9964 28.4884 21.6384 24.7155 26.3219 24.7155L26.3209 24.7156ZM29.9629 29.2681C29.0524 28.3576 27.7518 27.707 26.3209 27.707C23.3289 27.707 20.9875 30.1786 20.9875 33.0404C20.9875 34.4712 21.5079 35.7719 22.5486 36.8126C23.4591 37.7231 24.7598 38.3737 26.3209 38.3737C29.1827 38.3737 31.524 36.0323 31.524 33.0404C31.524 31.6095 31.0036 30.3088 29.9629 29.2681ZM33.0845 47.479V46.6987C33.0845 43.7068 30.613 41.3654 27.7512 41.3654H24.7592C23.3283 41.3654 22.0276 41.8858 20.987 42.9265C20.0764 43.837 19.4259 45.1376 19.4259 46.6987V47.479H33.0845ZM41.41 78.0485C42.0606 78.4387 42.3205 79.3492 41.9304 80.13C41.5402 80.7806 40.6297 81.0405 39.8489 80.6504C35.6864 78.309 31.9142 75.0571 29.0524 71.0244C26.3208 67.2521 24.2393 62.6989 23.3288 57.8865C23.1986 57.1063 23.719 56.3254 24.4998 56.1958C25.2801 55.9359 26.0609 56.4557 26.1906 57.3668C27.1011 61.7897 28.9221 65.8219 31.5239 69.3343C34.1258 72.8467 37.5073 75.8381 41.4099 78.0498L41.41 78.0485ZM38.8081 24.5848C38.0278 25.1052 37.1174 24.975 36.5969 24.3249C36.2068 23.5446 36.337 22.6342 36.9871 22.1138C42.8409 18.0809 49.6052 16 56.4987 16C63.2629 16 70.1569 18.0815 75.88 22.1138C76.6603 22.6341 76.7906 23.5446 76.2702 24.3249C75.8801 24.9755 74.8393 25.1052 74.1887 24.5848C68.9855 20.9428 62.7416 19.1211 56.4972 19.1211C50.2532 19.1211 44.0094 20.9422 38.8057 24.5848H38.8081ZM73.0192 80.6499C72.3686 81.04 71.4581 80.7801 70.9377 80.1295C70.5475 79.3492 70.8074 78.4388 71.5883 78.048C75.4908 75.8368 78.8729 72.8448 81.3447 69.3324C83.9466 65.82 85.7675 61.7878 86.678 57.3649C86.8082 56.4544 87.7188 55.934 88.4991 56.1939C89.2794 56.3242 89.7998 57.1045 89.6701 57.8847C88.6293 62.6978 86.6781 67.2503 83.8163 71.0225C80.9545 75.0553 77.3125 78.3072 73.0198 80.6485L73.0192 80.6499ZM60.2714 74.7961C59.2307 73.7554 57.93 73.235 56.4992 73.235C53.5072 73.235 51.1658 75.5764 51.1658 78.5684C51.1658 79.9992 51.8164 81.2999 52.7269 82.2104C53.6374 83.2511 55.0683 83.7715 56.4992 83.7715C59.3609 83.7715 61.7023 81.4301 61.7023 78.5684C61.7023 77.0073 61.1819 75.7066 60.2714 74.7961ZM63.2634 93.007V92.0965C63.2634 89.2347 60.922 86.7632 57.93 86.7632H54.9381C53.5072 86.7632 52.2065 87.4138 51.296 88.3242C50.2553 89.365 49.7349 90.6656 49.7349 92.0965V93.007H63.2634Z" fill="#1E739A"/>
</svg>
