<svg width="113" height="112" viewBox="0 0 113 112" fill="none" xmlns="http://www.w3.org/2000/svg">
<rect x="0.5" width="112" height="112" rx="56" fill="#E9F1F5"/>
<path d="M70.6474 62.9895C69.2159 62.3157 67.4473 62.9055 66.7734 64.337C64.8367 68.2949 60.9628 70.7368 56.4997 70.7368C52.0366 70.7368 48.1628 68.295 46.2261 64.337C45.5523 62.9055 43.7843 62.3158 42.3521 62.9895C40.9206 63.6632 40.3309 65.4313 41.0046 66.8634C43.8676 72.6741 49.9307 76.4634 56.4151 76.4634C63.0674 76.4634 68.9626 72.758 71.8256 66.8634C72.6686 65.4314 72.0795 63.7472 70.6474 62.9895Z" fill="#1E739A"/>
<path d="M56.5 16C34.4368 16 16.5 33.9368 16.5 56C16.5 78.0632 34.4368 96 56.5 96C78.5632 96 96.5 78.0632 96.5 56C96.5 33.9368 78.5632 16 56.5 16ZM56.5 90.1895C37.6368 90.1895 22.3105 74.8632 22.3105 56C22.3105 37.1368 37.6368 21.8105 56.5 21.8105C75.3632 21.8105 90.6895 37.1368 90.6895 56C90.6895 74.8632 75.3632 90.1895 56.5 90.1895Z" fill="#1E739A"/>
<path d="M44.2895 46.7368C46.0582 46.7368 47.5737 47.9158 48.0788 49.5999C48.4154 50.8628 49.5943 51.7051 50.8578 51.7051C51.1104 51.7051 51.3629 51.7051 51.6155 51.6211C53.131 51.1999 54.0573 49.5999 53.6367 48.0843C52.4578 43.8737 48.5838 41.0107 44.2894 41.0107C39.9103 41.0107 36.0369 43.9584 34.8579 48.0843C34.4368 49.5998 35.3631 51.1999 36.8791 51.6211C38.3946 52.0423 39.9948 51.1159 40.416 49.5999C41.0052 47.9159 42.5208 46.7368 44.2895 46.7368Z" fill="#1E739A"/>
<path d="M68.7106 40.9263C64.3315 40.9263 60.5421 43.8739 59.3632 47.9998C58.942 49.5153 59.8684 51.1154 61.3844 51.5366C62.8999 51.9578 64.5 51.0315 64.9212 49.5154C65.4264 47.8314 66.9424 46.6524 68.7106 46.6524C70.4793 46.6524 72.0787 47.8314 72.4999 49.5154C72.8365 50.7784 74.0154 51.6207 75.2788 51.6207C75.5314 51.6207 75.784 51.6207 76.0366 51.5367C77.5521 51.1155 78.4784 49.5155 78.0578 47.9999C76.8789 43.8734 73.0055 40.9263 68.7104 40.9263L68.7106 40.9263Z" fill="#1E739A"/>
</svg>
