<svg width="123" height="112" viewBox="0 0 123 112" fill="none" xmlns="http://www.w3.org/2000/svg">
<rect x="0.479614" width="122.041" height="112" rx="56" fill="#E9F1F5"/>
<path d="M102.197 53.5451C109.378 43.3705 107.456 29.0719 97.6036 21.1381C88.1198 13.5164 74.2534 14.4713 65.352 23.3556L61.5006 27.2188L57.6454 23.3521C48.7429 14.4707 34.881 13.5196 25.3938 21.1398C15.5452 29.073 13.6223 43.3708 20.8018 53.5449C20.2549 54.5114 19.798 55.5971 19.4559 56.8268C18.8074 59.1656 19.0172 61.6419 20.0473 63.8C22.0009 67.8927 25.2499 72.5747 29.0069 76.7559C28.2261 82.2223 29.8652 86.8948 33.8366 90.2893C38.2319 94.0479 45.3199 96 53.1797 96C55.9112 96 58.7362 95.7609 61.5743 95.2843C64.4715 95.7609 67.3061 96 70.0134 96C78.5951 96 85.9316 93.6597 90.1706 89.3558C93.4115 86.0659 94.7085 81.7194 93.9979 76.7604C98.318 71.9621 101.329 67.2129 102.963 63.8002C103.996 61.6398 104.205 59.1642 103.55 56.8307C103.206 55.5988 102.747 54.5131 102.2 53.5451H102.197ZM27.4487 23.691C35.6274 17.1192 47.6172 17.9673 55.3301 25.6678L60.3409 30.6955C60.955 31.3111 62.0459 31.3111 62.6614 30.6955L67.6679 25.6714C75.3861 17.9678 87.3722 17.116 95.5512 23.6916C103.803 30.3388 105.634 42.1627 100.076 50.8786C99.2572 50.1512 98.3338 49.567 97.289 49.1562C93.1458 47.52 88.3082 49.238 85.7713 53.2307C84.8852 54.6241 84.0897 55.8605 83.3981 56.9155L83.303 56.1083C83.0084 53.6028 80.8531 51.705 78.3505 51.705C78.2833 51.705 78.2146 51.7065 78.1444 51.7101C75.8079 51.8066 73.8273 53.5525 73.4361 55.8584L72.9302 58.8456C72.4601 61.6179 72.5391 64.4167 73.1678 67.1633L73.6167 69.135C70.5117 72.199 66.2209 74.5488 61.4409 76.1163C56.5003 74.4706 52.3548 72.0748 49.3881 69.1285L49.8319 67.1603C50.4607 64.3924 50.5374 61.5922 50.0644 58.8507L49.5673 55.8466C49.1498 53.5114 47.2087 51.8131 44.7786 51.7129H44.6148C42.1027 51.7129 39.9884 53.6029 39.6968 56.1069L39.6017 56.9162C38.796 55.6851 37.9494 54.3619 37.2338 53.2235C34.6859 49.234 29.8366 47.5262 25.7065 49.1586C24.6632 49.5695 23.7413 50.1507 22.924 50.8767C17.3662 42.1606 19.1954 30.3376 27.448 23.6915L27.4487 23.691ZM22.6109 57.7038C23.4137 54.8247 24.8189 53.027 26.9083 52.2045C29.5381 51.1597 32.7944 52.3587 34.468 54.9754C36.0661 57.5137 38.3194 60.9872 39.4139 62.4296C39.8182 62.9619 40.5076 63.201 41.148 63.0189C41.7936 62.8434 42.2666 62.2937 42.3434 61.6298L42.9495 56.4844C43.0496 55.6312 43.7654 54.9856 44.6149 54.9856L44.7114 54.9842C45.5273 55.0185 46.1985 55.6078 46.3396 56.3988L46.8323 59.3927C47.2351 61.7198 47.1693 64.0878 46.6356 66.4331L45.9967 69.2662C45.8789 69.7933 46.0281 70.3453 46.3944 70.7415C48.8838 73.4209 52.1818 75.7101 56.0684 77.505C47.5855 79.1412 38.4043 78.4254 31.7224 74.8832C28.0457 70.8482 24.8735 66.3103 23.0003 62.3865C22.3124 60.9433 22.1735 59.2792 22.6107 57.7037L22.6109 57.7038ZM87.8328 87.0582C84.4333 90.5091 78.3344 92.4821 71.1697 92.6869C79.1452 89.693 85.7434 84.9607 90.904 79.9511C90.7716 82.7198 89.7547 85.1061 87.8334 87.0582H87.8328ZM100.004 62.3866C96.4423 69.8351 85.9429 84.0224 69.188 89.9498C56.8025 94.332 42.5213 93.4073 35.9632 87.8012C33.2084 85.4464 31.907 82.3919 32.0753 78.7028C45.9018 84.7555 66.848 81.203 76.6047 70.755C76.9761 70.3572 77.1252 69.8016 77.0046 69.273L76.3561 66.4334C75.8253 64.1077 75.7581 61.7383 76.158 59.3915L76.6639 56.4042C76.7962 55.6131 77.4761 55.0136 78.2789 54.9807C79.1189 54.9464 79.9443 55.6066 80.0474 56.489L80.6535 61.6382C80.7325 62.3013 81.2055 62.8518 81.8488 63.0273C82.4893 63.2027 83.1787 62.9702 83.5845 62.438C84.6672 61.0102 86.8729 57.5974 88.5319 54.988C90.2039 52.3597 93.4595 51.1658 96.0835 52.204C98.1744 53.028 99.5847 54.8308 100.392 57.715C100.834 59.2832 100.695 60.942 100.004 62.3867L100.004 62.3866Z" fill="#1E739A"/>
</svg>
